<svg width="147" height="12" viewBox="0 0 147 12" fill="none" xmlns="http://www.w3.org/2000/svg">
<path d="M10.0675 6.744H6.11948L8.05148 2.838L10.0675 6.744ZM12.2515 11H15.7655L10.1935 0.584H5.96548L0.701476 11H4.01948L4.95748 9.096H11.2715L12.2515 11ZM22.6307 11.182C28.5807 11.182 29.6167 8.27 29.6167 6.954V6.8H26.1587C26.0747 7.038 25.7387 8.648 22.3647 8.648C19.3267 8.648 18.5007 7.024 18.5007 5.792V5.624C18.5007 4.322 19.2147 2.922 22.3367 2.922C25.6407 2.922 26.0607 4.378 26.1447 4.658H29.6027V4.504C29.6027 3.286 28.6647 0.402 22.6307 0.402H22.0567C15.8967 0.402 15.0847 3.664 15.0847 5.554V5.96C15.0847 7.808 16.0227 11.182 22.0567 11.182H22.6307ZM37.8749 11.182C43.8249 11.182 44.8609 8.27 44.8609 6.954V6.8H41.4029C41.3189 7.038 40.9829 8.648 37.6089 8.648C34.5709 8.648 33.7449 7.024 33.7449 5.792V5.624C33.7449 4.322 34.4589 2.922 37.5809 2.922C40.8849 2.922 41.3049 4.378 41.3889 4.658H44.8469V4.504C44.8469 3.286 43.9089 0.402 37.8749 0.402H37.3009C31.1409 0.402 30.3289 3.664 30.3289 5.554V5.96C30.3289 7.808 31.2669 11.182 37.3009 11.182H37.8749ZM45.993 0.584V11H57.109V8.578H49.213V6.87H56.787V4.49H49.213V2.95H56.969V0.584H45.993ZM64.9858 11.182C70.2218 11.182 71.0898 9.418 71.0898 7.696V7.5C71.0898 5.428 69.5078 4.476 65.5878 4.406L63.8378 4.378C61.7098 4.336 61.4298 3.93 61.4298 3.482C61.4298 3.034 61.6118 2.586 64.1318 2.586H64.3558C67.0858 2.586 67.2958 3.44 67.3658 3.832H70.7538V3.692C70.7538 2.124 69.6338 0.402 64.7058 0.402H63.7398C58.9938 0.402 58.0698 2.026 58.0698 3.58V3.706C58.0698 5.33 59.2598 6.646 63.1518 6.758L64.9438 6.8C67.3518 6.87 67.6738 7.248 67.6738 7.85C67.6738 8.41 67.3658 8.956 64.6218 8.956H64.4258C61.7378 8.956 61.3738 7.934 61.3318 7.304H57.9298V7.458C57.9298 8.83 58.5598 11.182 64.0198 11.182H64.9858ZM78.726 11.182C83.962 11.182 84.83 9.418 84.83 7.696V7.5C84.83 5.428 83.248 4.476 79.328 4.406L77.578 4.378C75.45 4.336 75.17 3.93 75.17 3.482C75.17 3.034 75.352 2.586 77.872 2.586H78.096C80.826 2.586 81.036 3.44 81.106 3.832H84.494V3.692C84.494 2.124 83.374 0.402 78.446 0.402H77.48C72.734 0.402 71.81 2.026 71.81 3.58V3.706C71.81 5.33 73 6.646 76.892 6.758L78.684 6.8C81.092 6.87 81.414 7.248 81.414 7.85C81.414 8.41 81.106 8.956 78.362 8.956H78.166C75.478 8.956 75.114 7.934 75.072 7.304H71.67V7.458C71.67 8.83 72.3 11.182 77.76 11.182H78.726ZM92.8582 0.402C86.2642 0.402 85.5222 3.692 85.5222 5.554V5.974C85.5222 7.808 86.2642 11.182 92.8582 11.182H93.4602C100.026 11.182 100.782 7.808 100.782 5.974V5.554C100.782 3.692 100.012 0.402 93.4602 0.402H92.8582ZM97.3662 5.848C97.3662 7.052 96.6522 8.648 93.1522 8.648C89.6242 8.648 88.9382 7.01 88.9382 5.82V5.652C88.9382 4.462 89.5682 2.922 93.1522 2.922C96.6802 2.922 97.3662 4.462 97.3662 5.652V5.848ZM105.214 2.95H110.156C111.108 2.95 111.472 3.412 111.472 3.958V3.972C111.472 4.546 111.094 4.994 110.156 4.994H105.214V2.95ZM105.214 7.304H109.47C111.08 7.304 111.64 7.864 111.64 9.138V10.342C111.64 10.72 111.696 10.874 111.794 11H115.112V10.93C115.014 10.762 114.916 10.496 114.916 9.656V8.13C114.916 6.786 114.006 6.044 112.942 5.736C113.628 5.512 114.874 4.952 114.874 3.454V3.286C114.874 1.788 113.824 0.584 110.352 0.584H101.952V11H105.214V7.304ZM119.46 0.584H116.198V11H119.46V0.584ZM121.052 0.584V11H132.168V8.578H124.272V6.87H131.846V4.49H124.272V2.95H132.028V0.584H121.052ZM140.044 11.182C145.28 11.182 146.148 9.418 146.148 7.696V7.5C146.148 5.428 144.566 4.476 140.646 4.406L138.896 4.378C136.768 4.336 136.488 3.93 136.488 3.482C136.488 3.034 136.67 2.586 139.19 2.586H139.414C142.144 2.586 142.354 3.44 142.424 3.832H145.812V3.692C145.812 2.124 144.692 0.402 139.764 0.402H138.798C134.052 0.402 133.128 2.026 133.128 3.58V3.706C133.128 5.33 134.318 6.646 138.21 6.758L140.002 6.8C142.41 6.87 142.732 7.248 142.732 7.85C142.732 8.41 142.424 8.956 139.68 8.956H139.484C136.796 8.956 136.432 7.934 136.39 7.304H132.988V7.458C132.988 8.83 133.618 11.182 139.078 11.182H140.044Z" fill="white"/>
</svg>
