<svg width="59" height="12" viewBox="0 0 59 12" fill="none" xmlns="http://www.w3.org/2000/svg">
<path d="M0.967586 11H9.96959C13.3436 11 14.2816 9.642 14.2816 8.004V7.808C14.2816 5.974 12.7556 5.372 12.0416 5.19C12.5456 5.036 13.6936 4.518 13.6936 3.16V2.964C13.6936 1.732 12.8676 0.584 9.88559 0.584H0.967586V11ZM9.32559 2.782C10.2356 2.782 10.4596 3.174 10.4596 3.608V3.636C10.4596 4.056 10.2356 4.476 9.32559 4.476H4.22959V2.782H9.32559ZM9.60559 6.688C10.6836 6.688 10.8936 7.206 10.8936 7.654V7.71C10.8936 8.13 10.6836 8.732 9.60559 8.732H4.22959V6.688H9.60559ZM18.5851 0.584H15.3231V11H18.5851V0.584ZM23.4386 11V6.086L28.9406 11H33.1966L26.9246 5.344L32.9166 0.584H28.7726L23.4386 4.924V0.584H20.1766V11H23.4386ZM33.7254 0.584V11H44.8414V8.578H36.9454V6.87H44.5194V4.49H36.9454V2.95H44.7014V0.584H33.7254ZM52.7181 11.182C57.9541 11.182 58.8221 9.418 58.8221 7.696V7.5C58.8221 5.428 57.2401 4.476 53.3201 4.406L51.5701 4.378C49.4421 4.336 49.1621 3.93 49.1621 3.482C49.1621 3.034 49.3441 2.586 51.8641 2.586H52.0881C54.8181 2.586 55.0281 3.44 55.0981 3.832H58.4861V3.692C58.4861 2.124 57.3661 0.402 52.4381 0.402H51.4721C46.7261 0.402 45.8021 2.026 45.8021 3.58V3.706C45.8021 5.33 46.9921 6.646 50.8841 6.758L52.6761 6.8C55.0841 6.87 55.4061 7.248 55.4061 7.85C55.4061 8.41 55.0981 8.956 52.3541 8.956H52.1581C49.4701 8.956 49.1061 7.934 49.0641 7.304H45.6621V7.458C45.6621 8.83 46.2921 11.182 51.7521 11.182H52.7181Z" fill="white"/>
</svg>
