<svg width="94" height="12" viewBox="0 0 94 12" fill="none" xmlns="http://www.w3.org/2000/svg">
<path d="M0.141254 0.584V11H11.2573V8.578H3.36125V6.87H10.9353V4.49H3.36125V2.95H11.1173V0.584H0.141254ZM15.69 11L18.854 7.766L22.046 11H26.148L21.038 5.666L26.036 0.584H22.032L19.092 3.636L16.152 0.584H11.784L16.852 5.736L11.672 11H15.69ZM34.6134 7.528C38.3374 7.528 39.4714 5.974 39.4714 4.112V3.972C39.4714 2.068 38.3654 0.584 34.6134 0.584H26.8014V11H30.0634V7.528H34.6134ZM30.0634 2.95H34.5574C35.6074 2.95 36.0694 3.342 36.0694 4.056V4.098C36.0694 4.812 35.5794 5.19 34.5574 5.19H30.0634V2.95ZM40.5553 0.584V11H51.0553V8.41H43.8173V0.584H40.5553ZM58.7506 0.402C52.1566 0.402 51.4146 3.692 51.4146 5.554V5.974C51.4146 7.808 52.1566 11.182 58.7506 11.182H59.3526C65.9186 11.182 66.6746 7.808 66.6746 5.974V5.554C66.6746 3.692 65.9046 0.402 59.3526 0.402H58.7506ZM63.2586 5.848C63.2586 7.052 62.5446 8.648 59.0446 8.648C55.5166 8.648 54.8306 7.01 54.8306 5.82V5.652C54.8306 4.462 55.4606 2.922 59.0446 2.922C62.5726 2.922 63.2586 4.462 63.2586 5.652V5.848ZM71.1064 2.95H76.0484C77.0004 2.95 77.3644 3.412 77.3644 3.958V3.972C77.3644 4.546 76.9864 4.994 76.0484 4.994H71.1064V2.95ZM71.1064 7.304H75.3624C76.9724 7.304 77.5324 7.864 77.5324 9.138V10.342C77.5324 10.72 77.5884 10.874 77.6864 11H81.0044V10.93C80.9064 10.762 80.8084 10.496 80.8084 9.656V8.13C80.8084 6.786 79.8984 6.044 78.8344 5.736C79.5204 5.512 80.7664 4.952 80.7664 3.454V3.286C80.7664 1.788 79.7164 0.584 76.2444 0.584H67.8444V11H71.1064V7.304ZM82.0905 0.584V11H93.2065V8.578H85.3105V6.87H92.8845V4.49H85.3105V2.95H93.0665V0.584H82.0905Z" fill="white"/>
</svg>
