<svg width="306" height="148" viewBox="0 0 306 148" fill="none" xmlns="http://www.w3.org/2000/svg">
<path d="M6.502 142.461L6.502 135.801L7.654 135.801L7.654 142.461L6.502 142.461ZM13 142.317L13 143.649L0.399999 143.649L0.399999 135.009L1.552 135.009L1.552 142.317L13 142.317ZM13.108 127.183C13.108 128.791 12.646 130.057 11.722 130.981C10.798 131.905 9.43 132.367 7.618 132.367L0.399998 132.367L0.399998 131.035L7.564 131.035C9.052 131.035 10.15 130.699 10.858 130.027C11.566 129.355 11.92 128.407 11.92 127.183C11.92 125.947 11.566 124.993 10.858 124.321C10.15 123.649 9.052 123.313 7.564 123.313L0.399998 123.313L0.399998 122.017L7.618 122.017C9.43 122.017 10.798 122.479 11.722 123.403C12.646 124.315 13.108 125.575 13.108 127.183ZM6.034 116.815L6.034 110.155L7.168 110.155L7.168 116.815L6.034 116.815ZM11.848 116.671L11.848 109.093L13 109.093L13 118.003L0.399998 118.003L0.399997 109.363L1.552 109.363L1.552 116.671L11.848 116.671ZM13 105.962L0.399997 105.962L0.399997 104.63L11.848 104.63L11.848 97.5737L13 97.5737L13 105.962ZM13.108 85.1791C13.108 86.1271 12.952 87.0031 12.64 87.8071C12.316 88.6111 11.866 89.3071 11.29 89.8951C10.714 90.4831 10.036 90.9451 9.256 91.2811C8.476 91.6051 7.624 91.7671 6.7 91.7671C5.776 91.7671 4.924 91.6051 4.144 91.2811C3.364 90.9451 2.686 90.4831 2.11 89.8951C1.534 89.2951 1.09 88.5931 0.777997 87.7891C0.453997 86.9851 0.291997 86.1091 0.291997 85.1611C0.291997 84.2491 0.447997 83.3911 0.759997 82.5871C1.06 81.7831 1.516 81.1051 2.128 80.5531L2.974 81.3991C2.446 81.9151 2.068 82.4851 1.84 83.1091C1.6 83.7331 1.48 84.4051 1.48 85.1251C1.48 85.8811 1.612 86.5831 1.876 87.2311C2.128 87.8791 2.494 88.4431 2.974 88.9231C3.442 89.4031 3.994 89.7811 4.63 90.0571C5.254 90.3211 5.944 90.4531 6.7 90.4531C7.456 90.4531 8.152 90.3211 8.788 90.0571C9.412 89.7811 9.964 89.4031 10.444 88.9231C10.912 88.4431 11.278 87.8791 11.542 87.2311C11.794 86.5831 11.92 85.8811 11.92 85.1251C11.92 84.4051 11.8 83.7331 11.56 83.1091C11.32 82.4851 10.936 81.9151 10.408 81.3991L11.254 80.5531C11.866 81.1051 12.328 81.7831 12.64 82.5871C12.952 83.3911 13.108 84.2551 13.108 85.1791ZM13 80.046L0.399996 74.286L0.399996 72.972L13 67.212L13 68.616L1.174 73.908L1.174 73.368L13 78.66L13 80.046ZM9.634 77.778L8.554 77.382L8.554 70.056L9.634 69.66L9.634 77.778ZM13 65.1277L0.399996 65.1277L0.399995 60.4117C0.399995 59.3437 0.573995 58.4257 0.921996 57.6577C1.258 56.8897 1.75 56.3017 2.398 55.8937C3.034 55.4737 3.808 55.2637 4.72 55.2637C5.608 55.2637 6.376 55.4737 7.024 55.8937C7.66 56.3017 8.152 56.8897 8.5 57.6577C8.848 58.4257 9.022 59.3437 9.022 60.4117L9.022 64.3897L8.392 63.7957L13 63.7957L13 65.1277ZM8.5 63.7957L7.852 64.3897L7.852 60.4477C7.852 59.1877 7.582 58.2337 7.042 57.5857C6.49 56.9257 5.716 56.5957 4.72 56.5957C3.712 56.5957 2.932 56.9257 2.38 57.5857C1.828 58.2337 1.552 59.1877 1.552 60.4477L1.552 64.3897L0.921996 63.7957L8.5 63.7957ZM13 55.0324L0.399995 49.2724L0.399995 47.9584L13 42.1984L13 43.6024L1.174 48.8944L1.174 48.3544L13 53.6464L13 55.0324ZM9.634 52.7644L8.554 52.3684L8.554 45.0424L9.634 44.6464L9.634 52.7644ZM13.108 34.8178C13.108 35.7658 12.952 36.6418 12.64 37.4458C12.316 38.2498 11.866 38.9458 11.29 39.5338C10.714 40.1218 10.036 40.5838 9.256 40.9198C8.476 41.2438 7.624 41.4058 6.69999 41.4058C5.776 41.4058 4.924 41.2438 4.144 40.9198C3.36399 40.5838 2.68599 40.1218 2.10999 39.5338C1.53399 38.9338 1.08999 38.2318 0.777995 37.4278C0.453995 36.6238 0.291995 35.7478 0.291995 34.7998C0.291994 33.8878 0.447995 33.0298 0.759995 32.2258C1.05999 31.4218 1.51599 30.7438 2.12799 30.1918L2.97399 31.0378C2.44599 31.5538 2.06799 32.1238 1.83999 32.7478C1.59999 33.3718 1.47999 34.0438 1.47999 34.7638C1.47999 35.5198 1.61199 36.2218 1.87599 36.8698C2.12799 37.5178 2.49399 38.0818 2.97399 38.5618C3.44199 39.0418 3.99399 39.4198 4.62999 39.6958C5.25399 39.9598 5.94399 40.0918 6.69999 40.0918C7.456 40.0918 8.152 39.9598 8.788 39.6958C9.412 39.4198 9.964 39.0418 10.444 38.5618C10.912 38.0818 11.278 37.5178 11.542 36.8698C11.794 36.2218 11.92 35.5198 11.92 34.7638C11.92 34.0438 11.8 33.3718 11.56 32.7478C11.32 32.1238 10.936 31.5538 10.408 31.0378L11.254 30.1918C11.866 30.7438 12.328 31.4218 12.64 32.2258C12.952 33.0298 13.108 33.8938 13.108 34.8178ZM13 27.3523L0.399994 27.3523L0.399994 26.0203L13 26.0203L13 27.3523ZM13 19.4727L1.55199 19.4727L1.55199 23.9007L0.399994 23.9007L0.399993 13.7127L1.55199 13.7127L1.55199 18.1407L13 18.1407L13 19.4727ZM13 8.66661L8.31999 8.66661L9.14799 8.36061L0.399993 13.7066L0.399993 12.2846L8.08599 7.58661L8.08599 8.34261L0.399993 3.64461L0.399993 2.31261L9.14799 7.65861L8.31999 7.35261L13 7.35261L13 8.66661Z" fill="#3F3E44"/>
<path d="M52.132 122.072C51.524 122.072 50.948 121.976 50.404 121.784C49.868 121.584 49.436 121.32 49.108 120.992L49.528 120.308C49.8 120.588 50.164 120.82 50.62 121.004C51.084 121.188 51.588 121.28 52.132 121.28C52.828 121.28 53.36 121.128 53.728 120.824C54.104 120.52 54.292 120.112 54.292 119.6C54.292 119.088 54.108 118.68 53.74 118.376C53.38 118.072 52.808 117.92 52.024 117.92H51.424V117.284L54.016 114.032L54.136 114.368H49.456V113.6H54.856V114.212L52.264 117.464L51.844 117.188H52.168C53.176 117.188 53.928 117.412 54.424 117.86C54.928 118.308 55.18 118.884 55.18 119.588C55.18 120.06 55.068 120.484 54.844 120.86C54.62 121.236 54.28 121.532 53.824 121.748C53.376 121.964 52.812 122.072 52.132 122.072ZM57.6454 122.06C57.4694 122.06 57.3174 121.996 57.1894 121.868C57.0694 121.74 57.0094 121.584 57.0094 121.4C57.0094 121.208 57.0694 121.052 57.1894 120.932C57.3174 120.812 57.4694 120.752 57.6454 120.752C57.8214 120.752 57.9694 120.812 58.0894 120.932C58.2174 121.052 58.2814 121.208 58.2814 121.4C58.2814 121.584 58.2174 121.74 58.0894 121.868C57.9694 121.996 57.8214 122.06 57.6454 122.06ZM61.4758 122L65.0998 113.984L65.3638 114.368H60.1678L60.6118 113.948V115.94H59.7598V113.6H65.9278V114.212L62.4118 122H61.4758ZM72.1508 122V113.6H73.0388V122H72.1508ZM76.3719 122V113.6H77.1039L80.9439 120.152H80.5599L84.3639 113.6H85.0959V122H84.2439V114.932H84.4479L80.9439 120.932H80.5239L76.9959 114.932H77.2239V122H76.3719ZM88.4328 122V113.6H91.5768C92.2888 113.6 92.9008 113.716 93.4128 113.948C93.9248 114.172 94.3168 114.5 94.5888 114.932C94.8688 115.356 95.0088 115.872 95.0088 116.48C95.0088 117.072 94.8688 117.584 94.5888 118.016C94.3168 118.44 93.9248 118.768 93.4128 119C92.9008 119.232 92.2888 119.348 91.5768 119.348H88.9248L89.3208 118.928V122H88.4328ZM89.3208 119L88.9248 118.568H91.5528C92.3928 118.568 93.0288 118.388 93.4608 118.028C93.9008 117.66 94.1208 117.144 94.1208 116.48C94.1208 115.808 93.9008 115.288 93.4608 114.92C93.0288 114.552 92.3928 114.368 91.5528 114.368H88.9248L89.3208 113.948V119ZM105.071 122.072C104.431 122.072 103.839 121.968 103.295 121.76C102.759 121.544 102.291 121.244 101.891 120.86C101.499 120.476 101.191 120.024 100.967 119.504C100.751 118.984 100.643 118.416 100.643 117.8C100.643 117.184 100.751 116.616 100.967 116.096C101.191 115.576 101.503 115.124 101.903 114.74C102.303 114.356 102.771 114.06 103.307 113.852C103.851 113.636 104.443 113.528 105.083 113.528C105.723 113.528 106.307 113.628 106.835 113.828C107.371 114.028 107.827 114.332 108.203 114.74L107.651 115.304C107.299 114.952 106.911 114.7 106.487 114.548C106.063 114.396 105.607 114.32 105.119 114.32C104.599 114.32 104.119 114.408 103.679 114.584C103.247 114.752 102.867 114.996 102.539 115.316C102.219 115.628 101.967 115.996 101.783 116.42C101.607 116.836 101.519 117.296 101.519 117.8C101.519 118.296 101.607 118.756 101.783 119.18C101.967 119.604 102.219 119.976 102.539 120.296C102.867 120.608 103.247 120.852 103.679 121.028C104.119 121.196 104.595 121.28 105.107 121.28C105.587 121.28 106.039 121.208 106.463 121.064C106.895 120.92 107.291 120.676 107.651 120.332L108.155 121.004C107.755 121.356 107.287 121.624 106.751 121.808C106.215 121.984 105.655 122.072 105.071 122.072ZM107.303 120.896V117.8H108.155V121.004L107.303 120.896ZM109.924 122L113.764 113.6H114.64L118.48 122H117.544L114.016 114.116H114.376L110.848 122H109.924ZM111.436 119.756L111.7 119.036H116.584L116.848 119.756H111.436ZM120.47 122V113.6H121.358V121.232H126.062V122H120.47Z" fill="white"/>
<path d="M55.176 78.248L55.176 93H62.568L62.568 69.192H56.744C55.656 71.688 53.736 73.512 49.64 73.768V78.248H55.176ZM65.6513 69.192V79.464H73.2033V74.568H86.6433C86.4833 75.08 85.4593 76.008 81.9713 79.336C77.1393 83.912 75.7633 86.216 75.7633 89.992V93H84.3073V92.712C84.3073 88.904 84.5312 85.992 88.1793 81.16C90.6113 77.96 93.1073 75.4 94.0993 74.216V69.192H65.6513ZM106.449 69.192V93L130.449 93V87.08H113.905V69.192H106.449Z" fill="white"/>
<path d="M49.48 33.792V33.168L53.932 27.6H54.892L50.476 33.168L50.008 33.024H56.764V33.792H49.48ZM54.22 36V33.792L54.244 33.024V31.08H55.084V36H54.22ZM59.04 36.06C58.864 36.06 58.712 35.996 58.584 35.868C58.464 35.74 58.404 35.584 58.404 35.4C58.404 35.208 58.464 35.052 58.584 34.932C58.712 34.812 58.864 34.752 59.04 34.752C59.216 34.752 59.364 34.812 59.484 34.932C59.612 35.052 59.676 35.208 59.676 35.4C59.676 35.584 59.612 35.74 59.484 35.868C59.364 35.996 59.216 36.06 59.04 36.06ZM64.1869 36.072C63.5869 36.072 63.0149 35.976 62.4709 35.784C61.9269 35.584 61.4949 35.32 61.1749 34.992L61.5949 34.308C61.8589 34.588 62.2189 34.82 62.6749 35.004C63.1389 35.188 63.6389 35.28 64.1749 35.28C64.8869 35.28 65.4269 35.124 65.7949 34.812C66.1709 34.492 66.3589 34.076 66.3589 33.564C66.3589 33.204 66.2709 32.896 66.0949 32.64C65.9269 32.376 65.6389 32.172 65.2309 32.028C64.8229 31.884 64.2629 31.812 63.5509 31.812H61.7629L62.1949 27.6H66.7909V28.368H62.5429L62.9869 27.948L62.6149 31.476L62.1709 31.044H63.7429C64.5909 31.044 65.2709 31.148 65.7829 31.356C66.2949 31.564 66.6629 31.856 66.8869 32.232C67.1189 32.6 67.2349 33.032 67.2349 33.528C67.2349 34 67.1229 34.432 66.8989 34.824C66.6749 35.208 66.3389 35.512 65.8909 35.736C65.4429 35.96 64.8749 36.072 64.1869 36.072ZM76.8004 36.072C75.7284 36.072 74.8844 35.764 74.2684 35.148C73.6524 34.532 73.3444 33.62 73.3444 32.412V27.6H74.2324V32.376C74.2324 33.368 74.4564 34.1 74.9044 34.572C75.3524 35.044 75.9844 35.28 76.8004 35.28C77.6244 35.28 78.2604 35.044 78.7084 34.572C79.1564 34.1 79.3804 33.368 79.3804 32.376V27.6H80.2444V32.412C80.2444 33.62 79.9364 34.532 79.3204 35.148C78.7124 35.764 77.8724 36.072 76.8004 36.072ZM85.8363 36.072C85.2123 36.072 84.6123 35.972 84.0363 35.772C83.4683 35.564 83.0283 35.3 82.7163 34.98L83.0643 34.296C83.3603 34.584 83.7563 34.828 84.2523 35.028C84.7563 35.22 85.2843 35.316 85.8363 35.316C86.3643 35.316 86.7923 35.252 87.1203 35.124C87.4563 34.988 87.7003 34.808 87.8523 34.584C88.0123 34.36 88.0923 34.112 88.0923 33.84C88.0923 33.512 87.9963 33.248 87.8043 33.048C87.6203 32.848 87.3763 32.692 87.0723 32.58C86.7683 32.46 86.4323 32.356 86.0643 32.268C85.6963 32.18 85.3283 32.088 84.9603 31.992C84.5923 31.888 84.2523 31.752 83.9403 31.584C83.6363 31.416 83.3883 31.196 83.1963 30.924C83.0123 30.644 82.9203 30.28 82.9203 29.832C82.9203 29.416 83.0283 29.036 83.2443 28.692C83.4683 28.34 83.8083 28.06 84.2643 27.852C84.7203 27.636 85.3043 27.528 86.0163 27.528C86.4883 27.528 86.9563 27.596 87.4203 27.732C87.8843 27.86 88.2843 28.04 88.6203 28.272L88.3203 28.98C87.9603 28.74 87.5763 28.564 87.1683 28.452C86.7683 28.34 86.3803 28.284 86.0043 28.284C85.5003 28.284 85.0843 28.352 84.7563 28.488C84.4283 28.624 84.1843 28.808 84.0243 29.04C83.8723 29.264 83.7963 29.52 83.7963 29.808C83.7963 30.136 83.8883 30.4 84.0723 30.6C84.2643 30.8 84.5123 30.956 84.8163 31.068C85.1283 31.18 85.4683 31.28 85.8363 31.368C86.2043 31.456 86.5683 31.552 86.9283 31.656C87.2963 31.76 87.6323 31.896 87.9363 32.064C88.2483 32.224 88.4963 32.44 88.6803 32.712C88.8723 32.984 88.9683 33.34 88.9683 33.78C88.9683 34.188 88.8563 34.568 88.6323 34.92C88.4083 35.264 88.0643 35.544 87.6003 35.76C87.1443 35.968 86.5563 36.072 85.8363 36.072ZM98.9278 36.072C98.2878 36.072 97.6958 35.968 97.1518 35.76C96.6158 35.544 96.1478 35.244 95.7478 34.86C95.3558 34.476 95.0478 34.024 94.8238 33.504C94.6078 32.984 94.4998 32.416 94.4998 31.8C94.4998 31.184 94.6078 30.616 94.8238 30.096C95.0478 29.576 95.3598 29.124 95.7598 28.74C96.1598 28.356 96.6278 28.06 97.1638 27.852C97.7078 27.636 98.2998 27.528 98.9398 27.528C99.5798 27.528 100.164 27.628 100.692 27.828C101.228 28.028 101.684 28.332 102.06 28.74L101.508 29.304C101.156 28.952 100.768 28.7 100.344 28.548C99.9198 28.396 99.4638 28.32 98.9758 28.32C98.4558 28.32 97.9758 28.408 97.5358 28.584C97.1038 28.752 96.7238 28.996 96.3958 29.316C96.0758 29.628 95.8238 29.996 95.6398 30.42C95.4638 30.836 95.3758 31.296 95.3758 31.8C95.3758 32.296 95.4638 32.756 95.6398 33.18C95.8238 33.604 96.0758 33.976 96.3958 34.296C96.7238 34.608 97.1038 34.852 97.5358 35.028C97.9758 35.196 98.4518 35.28 98.9638 35.28C99.4438 35.28 99.8958 35.208 100.32 35.064C100.752 34.92 101.148 34.676 101.508 34.332L102.012 35.004C101.612 35.356 101.144 35.624 100.608 35.808C100.072 35.984 99.5118 36.072 98.9278 36.072ZM101.16 34.896V31.8H102.012V35.004L101.16 34.896ZM103.781 36L107.621 27.6H108.497L112.337 36H111.401L107.873 28.116H108.233L104.705 36H103.781ZM105.293 33.756L105.557 33.036H110.441L110.705 33.756H105.293ZM114.327 36V27.6H115.215V35.232H119.919V36H114.327Z" fill="white"/>
</svg>
