<svg width="107" height="12" viewBox="0 0 107 12" fill="none" xmlns="http://www.w3.org/2000/svg">
<path d="M0.718097 0.584V11H3.9381V4.098L11.0081 11H14.2281V0.584H11.0081V7.136L4.3581 0.584H0.718097ZM15.8255 0.584V11H26.9415V8.578H19.0455V6.87H26.6195V4.49H19.0455V2.95H26.8015V0.584H15.8255ZM35.2103 11L37.5763 4.028L40.0823 11H43.3723L47.5863 0.584H44.3803L41.7483 7.542L39.3683 0.584H35.8963L33.5723 7.752L30.8843 0.584H27.3283L31.6123 11H35.2103ZM56.5948 11H59.8848V3.048H64.3788V0.584H52.1148V3.048H56.5948V11ZM65.5638 0.584V11H76.6798V8.578H68.7838V6.87H76.3578V4.49H68.7838V2.95H76.5398V0.584H65.5638ZM85.1312 11.182C91.0812 11.182 92.1172 8.27 92.1172 6.954V6.8H88.6592C88.5752 7.038 88.2392 8.648 84.8652 8.648C81.8272 8.648 81.0012 7.024 81.0012 5.792V5.624C81.0012 4.322 81.7152 2.922 84.8372 2.922C88.1412 2.922 88.5612 4.378 88.6452 4.658H92.1032V4.504C92.1032 3.286 91.1652 0.402 85.1312 0.402H84.5572C78.3972 0.402 77.5852 3.664 77.5852 5.554V5.96C77.5852 7.808 78.5232 11.182 84.5572 11.182H85.1312ZM93.2493 11H96.5113V6.898H103.511V11H106.773V0.584H103.511V4.378H96.5113V0.584H93.2493V11Z" fill="white"/>
</svg>
