<svg width="306" height="148" viewBox="0 0 306 148" fill="none" xmlns="http://www.w3.org/2000/svg">
<path d="M13 108.168L0.399997 108.168L0.399997 103.452C0.399997 102.384 0.573997 101.466 0.921998 100.698C1.258 99.9297 1.75 99.3417 2.398 98.9337C3.034 98.5137 3.808 98.3037 4.72 98.3037C5.608 98.3037 6.376 98.5137 7.024 98.9337C7.66 99.3417 8.152 99.9297 8.5 100.698C8.848 101.466 9.022 102.384 9.022 103.452L9.022 107.43L8.392 106.836L13 106.836L13 108.168ZM8.5 106.836L7.852 107.43L7.852 103.488C7.852 102.228 7.582 101.274 7.042 100.626C6.49 99.9657 5.716 99.6357 4.72 99.6357C3.712 99.6357 2.932 99.9657 2.38 100.626C1.828 101.274 1.552 102.228 1.552 103.488L1.552 107.43L0.921998 106.836L8.5 106.836ZM13.108 89.7398C13.108 90.6878 12.952 91.5698 12.64 92.3858C12.316 93.1898 11.866 93.8918 11.29 94.4918C10.702 95.0798 10.024 95.5418 9.256 95.8778C8.476 96.2018 7.624 96.3638 6.7 96.3638C5.776 96.3638 4.93 96.2018 4.162 95.8778C3.382 95.5418 2.704 95.0798 2.128 94.4918C1.54 93.8918 1.09 93.1898 0.777997 92.3858C0.453997 91.5818 0.291997 90.6998 0.291997 89.7398C0.291997 88.7918 0.453997 87.9158 0.777997 87.1118C1.09 86.3078 1.534 85.6118 2.11 85.0238C2.686 84.4238 3.364 83.9618 4.144 83.6378C4.924 83.3018 5.776 83.1338 6.7 83.1338C7.624 83.1338 8.476 83.3018 9.256 83.6378C10.036 83.9618 10.714 84.4238 11.29 85.0238C11.866 85.6118 12.316 86.3078 12.64 87.1118C12.952 87.9158 13.108 88.7918 13.108 89.7398ZM11.92 89.7398C11.92 88.9838 11.794 88.2878 11.542 87.6518C11.278 87.0038 10.912 86.4458 10.444 85.9778C9.964 85.4978 9.412 85.1258 8.788 84.8618C8.152 84.5978 7.456 84.4658 6.7 84.4658C5.944 84.4658 5.254 84.5978 4.63 84.8618C3.994 85.1258 3.442 85.4978 2.974 85.9778C2.494 86.4458 2.128 87.0038 1.876 87.6518C1.612 88.2878 1.48 88.9838 1.48 89.7398C1.48 90.4958 1.612 91.1978 1.876 91.8458C2.128 92.4938 2.494 93.0578 2.974 93.5378C3.442 94.0058 3.994 94.3778 4.63 94.6538C5.254 94.9178 5.944 95.0498 6.7 95.0498C7.444 95.0498 8.134 94.9178 8.77 94.6538C9.406 94.3778 9.964 94.0058 10.444 93.5378C10.912 93.0578 11.278 92.4938 11.542 91.8458C11.794 91.1978 11.92 90.4958 11.92 89.7398ZM13 77.6553L0.399996 81.9033L0.399996 80.5353L12.262 76.5573L12.262 77.2413L0.399996 73.1373L0.399996 71.9133L12.262 67.8633L12.262 68.5113L0.399995 64.4973L0.399995 63.2193L13 67.4673L13 68.8713L1.75 72.7413L1.75 72.3813L13 76.2693L13 77.6553ZM6.034 59.5891L6.034 52.9291L7.168 52.9291L7.168 59.5891L6.034 59.5891ZM11.848 59.4451L11.848 51.8671L13 51.8671L13 60.7771L0.399995 60.7771L0.399995 52.1371L1.552 52.1371L1.552 59.4451L11.848 59.4451ZM13 48.7361L0.399995 48.7361L0.399995 44.0201C0.399995 42.9521 0.573995 42.0341 0.921995 41.2661C1.258 40.4981 1.74999 39.9101 2.39799 39.5021C3.03399 39.0821 3.808 38.8721 4.72 38.8721C5.608 38.8721 6.376 39.0821 7.02399 39.5021C7.66 39.9101 8.152 40.4981 8.5 41.2661C8.836 42.0341 9.004 42.9521 9.004 44.0201L9.004 47.9981L8.392 47.4041L13 47.4041L13 48.7361ZM13 40.1321L8.428 43.3721L8.428 41.9321L13 38.6741L13 40.1321ZM8.5 47.4041L7.87 47.9981L7.86999 44.0561C7.86999 42.7961 7.59399 41.8421 7.04199 41.1941C6.49 40.5341 5.716 40.2041 4.72 40.2041C3.71199 40.2041 2.93199 40.5341 2.37999 41.1941C1.82799 41.8421 1.55199 42.7961 1.55199 44.0561L1.55199 47.9981L0.921996 47.4041L8.5 47.4041Z" fill="#3F3E44"/>
<path d="M52.24 113.528C52.984 113.528 53.612 113.696 54.124 114.032C54.636 114.36 55.024 114.836 55.288 115.46C55.552 116.084 55.684 116.84 55.684 117.728C55.684 118.672 55.52 119.468 55.192 120.116C54.872 120.764 54.424 121.252 53.848 121.58C53.272 121.908 52.604 122.072 51.844 122.072C51.468 122.072 51.108 122.036 50.764 121.964C50.428 121.892 50.124 121.776 49.852 121.616L50.2 120.92C50.416 121.064 50.664 121.168 50.944 121.232C51.232 121.288 51.528 121.316 51.832 121.316C52.736 121.316 53.456 121.028 53.992 120.452C54.536 119.876 54.808 119.016 54.808 117.872C54.808 117.688 54.796 117.468 54.772 117.212C54.756 116.956 54.712 116.7 54.64 116.444L54.94 116.672C54.86 117.088 54.688 117.444 54.424 117.74C54.168 118.028 53.848 118.248 53.464 118.4C53.088 118.552 52.668 118.628 52.204 118.628C51.652 118.628 51.16 118.524 50.728 118.316C50.304 118.108 49.972 117.816 49.732 117.44C49.492 117.064 49.372 116.62 49.372 116.108C49.372 115.58 49.496 115.124 49.744 114.74C49.992 114.356 50.332 114.06 50.764 113.852C51.204 113.636 51.696 113.528 52.24 113.528ZM52.276 114.26C51.876 114.26 51.52 114.336 51.208 114.488C50.904 114.632 50.664 114.84 50.488 115.112C50.312 115.384 50.224 115.708 50.224 116.084C50.224 116.636 50.412 117.076 50.788 117.404C51.172 117.732 51.688 117.896 52.336 117.896C52.768 117.896 53.144 117.816 53.464 117.656C53.792 117.496 54.044 117.276 54.22 116.996C54.404 116.716 54.496 116.404 54.496 116.06C54.496 115.748 54.412 115.456 54.244 115.184C54.076 114.912 53.828 114.692 53.5 114.524C53.172 114.348 52.764 114.26 52.276 114.26ZM58.0556 122.06C57.8796 122.06 57.7276 121.996 57.5996 121.868C57.4796 121.74 57.4196 121.584 57.4196 121.4C57.4196 121.208 57.4796 121.052 57.5996 120.932C57.7276 120.812 57.8796 120.752 58.0556 120.752C58.2316 120.752 58.3796 120.812 58.4996 120.932C58.6276 121.052 58.6916 121.208 58.6916 121.4C58.6916 121.584 58.6276 121.74 58.4996 121.868C58.3796 121.996 58.2316 122.06 58.0556 122.06ZM60.5117 122V121.388L64.0037 117.968C64.3237 117.656 64.5637 117.384 64.7237 117.152C64.8838 116.912 64.9918 116.688 65.0478 116.48C65.1038 116.272 65.1318 116.076 65.1318 115.892C65.1318 115.404 64.9638 115.02 64.6278 114.74C64.2998 114.46 63.8118 114.32 63.1638 114.32C62.6678 114.32 62.2277 114.396 61.8437 114.548C61.4677 114.7 61.1437 114.936 60.8717 115.256L60.2597 114.728C60.5877 114.344 61.0077 114.048 61.5197 113.84C62.0317 113.632 62.6037 113.528 63.2357 113.528C63.8037 113.528 64.2958 113.62 64.7118 113.804C65.1278 113.98 65.4477 114.24 65.6717 114.584C65.9038 114.928 66.0198 115.332 66.0198 115.796C66.0198 116.068 65.9798 116.336 65.8998 116.6C65.8278 116.864 65.6918 117.144 65.4918 117.44C65.2997 117.728 65.0157 118.056 64.6398 118.424L61.4357 121.568L61.1957 121.232H66.4038V122H60.5117ZM70.7401 122.072C70.1401 122.072 69.5681 121.976 69.0241 121.784C68.4801 121.584 68.0481 121.32 67.7281 120.992L68.1481 120.308C68.4121 120.588 68.7721 120.82 69.2281 121.004C69.6921 121.188 70.1921 121.28 70.7281 121.28C71.4401 121.28 71.9801 121.124 72.3481 120.812C72.7241 120.492 72.9121 120.076 72.9121 119.564C72.9121 119.204 72.8241 118.896 72.6481 118.64C72.4801 118.376 72.1921 118.172 71.7841 118.028C71.3761 117.884 70.8161 117.812 70.1041 117.812H68.3161L68.7481 113.6H73.3441V114.368H69.0961L69.5401 113.948L69.1681 117.476L68.7241 117.044H70.2961C71.1441 117.044 71.8241 117.148 72.3361 117.356C72.8481 117.564 73.2161 117.856 73.4401 118.232C73.6721 118.6 73.7881 119.032 73.7881 119.528C73.7881 120 73.6761 120.432 73.4521 120.824C73.2281 121.208 72.8921 121.512 72.4441 121.736C71.9961 121.96 71.4281 122.072 70.7401 122.072ZM78.8329 122.072C78.1849 122.072 77.6089 121.904 77.1049 121.568C76.6009 121.224 76.2049 120.736 75.9169 120.104C75.6289 119.464 75.4849 118.696 75.4849 117.8C75.4849 116.904 75.6289 116.14 75.9169 115.508C76.2049 114.868 76.6009 114.38 77.1049 114.044C77.6089 113.7 78.1849 113.528 78.8329 113.528C79.4809 113.528 80.0569 113.7 80.5609 114.044C81.0649 114.38 81.4609 114.868 81.7489 115.508C82.0449 116.14 82.1929 116.904 82.1929 117.8C82.1929 118.696 82.0449 119.464 81.7489 120.104C81.4609 120.736 81.0649 121.224 80.5609 121.568C80.0569 121.904 79.4809 122.072 78.8329 122.072ZM78.8329 121.28C79.3289 121.28 79.7609 121.148 80.1289 120.884C80.4969 120.612 80.7849 120.22 80.9929 119.708C81.2009 119.188 81.3049 118.552 81.3049 117.8C81.3049 117.048 81.2009 116.416 80.9929 115.904C80.7849 115.384 80.4969 114.992 80.1289 114.728C79.7609 114.456 79.3289 114.32 78.8329 114.32C78.3529 114.32 77.9249 114.456 77.5489 114.728C77.1729 114.992 76.8809 115.384 76.6729 115.904C76.4649 116.416 76.3609 117.048 76.3609 117.8C76.3609 118.552 76.4649 119.188 76.6729 119.708C76.8809 120.22 77.1729 120.612 77.5489 120.884C77.9249 121.148 78.3529 121.28 78.8329 121.28ZM88.5149 122V113.6H91.6589C92.3709 113.6 92.9829 113.716 93.4949 113.948C94.0069 114.172 94.3989 114.5 94.6709 114.932C94.9509 115.356 95.0909 115.872 95.0909 116.48C95.0909 117.072 94.9509 117.584 94.6709 118.016C94.3989 118.44 94.0069 118.768 93.4949 119C92.9829 119.224 92.3709 119.336 91.6589 119.336H89.0069L89.4029 118.928V122H88.5149ZM94.2509 122L92.0909 118.952H93.0509L95.2229 122H94.2509ZM89.4029 119L89.0069 118.58H91.6349C92.4749 118.58 93.1109 118.396 93.5429 118.028C93.9829 117.66 94.2029 117.144 94.2029 116.48C94.2029 115.808 93.9829 115.288 93.5429 114.92C93.1109 114.552 92.4749 114.368 91.6349 114.368H89.0069L89.4029 113.948V119ZM97.7868 122V113.6H100.931C101.643 113.6 102.255 113.716 102.767 113.948C103.279 114.172 103.671 114.5 103.943 114.932C104.223 115.356 104.363 115.872 104.363 116.48C104.363 117.072 104.223 117.584 103.943 118.016C103.671 118.44 103.279 118.768 102.767 119C102.255 119.232 101.643 119.348 100.931 119.348H98.2788L98.6748 118.928V122H97.7868ZM98.6748 119L98.2788 118.568H100.907C101.747 118.568 102.383 118.388 102.815 118.028C103.255 117.66 103.475 117.144 103.475 116.48C103.475 115.808 103.255 115.288 102.815 114.92C102.383 114.552 101.747 114.368 100.907 114.368H98.2788L98.6748 113.948V119ZM106.883 122V113.6H107.615L111.455 120.152H111.071L114.875 113.6H115.607V122H114.755V114.932H114.959L111.455 120.932H111.035L107.507 114.932H107.735V122H106.883Z" fill="white"/>
<path d="M55.176 78.248L55.176 93H62.568L62.568 69.192H56.744C55.656 71.688 53.736 73.512 49.64 73.768V78.248H55.176ZM81.5873 93.48C93.5873 93.48 95.5713 88.808 95.5713 85.32V85.032C95.5713 81.288 93.2033 77.672 83.2193 77.672H82.8033C75.6353 77.672 73.6513 79.464 72.9153 79.976V79.848C72.9153 78.216 73.6513 74.28 80.5312 74.28C86.0993 74.28 86.7073 76.104 86.8673 76.36H94.5473V76.232C94.5473 73.064 91.9233 68.776 81.1713 68.776H79.8913C68.4033 68.776 65.4593 75.272 65.4593 80.744V81.512C65.4593 86.984 67.9233 93.48 80.1793 93.48H81.5873ZM73.8753 85.224C73.8753 84.008 74.9313 82.664 80.8513 82.664C86.9633 82.664 87.7633 84.104 87.7633 85.288V85.416C87.7633 86.536 86.9633 88.072 80.8513 88.072C74.9633 88.072 73.8753 86.44 73.8753 85.32V85.224ZM126.109 93V84.296H118.781V87.368L103.709 87.368C103.709 86.696 104.349 85.416 109.981 84.392L116.509 83.304C124.317 82.024 125.693 79.752 125.693 76.168V76.104C125.693 72.328 123.421 68.776 112.221 68.776H110.941C98.621 68.776 97.469 74.632 97.469 77.352V77.608L105.245 77.608C105.341 76.424 105.853 74.248 111.837 74.248C117.085 74.248 117.821 75.112 117.821 76.04C117.821 76.776 117.533 77.416 114.301 78.024L108.733 79.176C97.693 81.48 97.053 86.792 97.053 90.312V93L126.109 93ZM138.855 93H146.311V83.624H162.311V93H169.767V69.192H162.311V77.864H146.311V69.192H138.855V93ZM191.274 85.064C199.786 85.064 202.378 81.512 202.378 77.256V76.936C202.378 72.584 199.85 69.192 191.274 69.192L173.418 69.192V93H180.874V85.064H191.274ZM180.874 74.6H191.146C193.546 74.6 194.602 75.496 194.602 77.128V77.224C194.602 78.856 193.482 79.72 191.146 79.72H180.874V74.6Z" fill="white"/>
<path d="M51.088 36V27.96L51.472 28.368H49.108V27.6H51.952V36H51.088ZM54.4039 36V35.388L57.8959 31.968C58.2159 31.656 58.4559 31.384 58.6159 31.152C58.7759 30.912 58.8839 30.688 58.9399 30.48C58.9959 30.272 59.0239 30.076 59.0239 29.892C59.0239 29.404 58.8559 29.02 58.5199 28.74C58.1919 28.46 57.7039 28.32 57.0559 28.32C56.5599 28.32 56.1199 28.396 55.7359 28.548C55.3599 28.7 55.0359 28.936 54.7639 29.256L54.1519 28.728C54.4799 28.344 54.8999 28.048 55.4119 27.84C55.9239 27.632 56.4959 27.528 57.1279 27.528C57.6959 27.528 58.1879 27.62 58.6039 27.804C59.0199 27.98 59.3399 28.24 59.5639 28.584C59.7959 28.928 59.9119 29.332 59.9119 29.796C59.9119 30.068 59.8719 30.336 59.7919 30.6C59.7199 30.864 59.5839 31.144 59.3839 31.44C59.1919 31.728 58.9079 32.056 58.5319 32.424L55.3279 35.568L55.0879 35.232H60.2959V36H54.4039ZM63.4442 36V27.96L63.8282 28.368H61.4642V27.6H64.3082V36H63.4442ZM72.1688 33.912L72.1328 32.832L77.2208 27.6H78.2408L74.5328 31.488L74.0288 32.028L72.1688 33.912ZM71.4008 36V27.6H72.2888V36H71.4008ZM77.4368 36L73.8128 31.824L74.4128 31.176L78.4928 36H77.4368ZM81.9596 36L79.1276 27.6H80.0396L82.6916 35.508H82.2356L84.9716 27.6H85.7876L88.4876 35.508H88.0556L90.7316 27.6H91.5836L88.7516 36H87.8156L85.2356 28.5H85.4756L82.8836 36H81.9596Z" fill="white"/>
</svg>
