<svg width="306" height="148" viewBox="0 0 306 148" fill="none" xmlns="http://www.w3.org/2000/svg">
<path d="M13 122.331L1.552 122.331L1.552 126.759L0.399998 126.759L0.399998 116.571L1.552 116.571L1.552 120.999L13 120.999L13 122.331ZM13.108 109.111C13.108 110.059 12.952 110.941 12.64 111.757C12.316 112.561 11.866 113.263 11.29 113.863C10.702 114.451 10.024 114.913 9.256 115.249C8.476 115.573 7.624 115.735 6.7 115.735C5.776 115.735 4.93 115.573 4.162 115.249C3.382 114.913 2.704 114.451 2.128 113.863C1.54 113.263 1.09 112.561 0.777998 111.757C0.453998 110.953 0.291998 110.071 0.291998 109.111C0.291998 108.163 0.453998 107.287 0.777998 106.483C1.09 105.679 1.534 104.983 2.11 104.395C2.686 103.795 3.364 103.333 4.144 103.009C4.924 102.673 5.776 102.505 6.7 102.505C7.624 102.505 8.476 102.673 9.256 103.009C10.036 103.333 10.714 103.795 11.29 104.395C11.866 104.983 12.316 105.679 12.64 106.483C12.952 107.287 13.108 108.163 13.108 109.111ZM11.92 109.111C11.92 108.355 11.794 107.659 11.542 107.023C11.278 106.375 10.912 105.817 10.444 105.349C9.964 104.869 9.412 104.497 8.788 104.233C8.152 103.969 7.456 103.837 6.7 103.837C5.944 103.837 5.254 103.969 4.63 104.233C3.994 104.497 3.442 104.869 2.974 105.349C2.494 105.817 2.128 106.375 1.876 107.023C1.612 107.659 1.48 108.355 1.48 109.111C1.48 109.867 1.612 110.569 1.876 111.217C2.128 111.865 2.494 112.429 2.974 112.909C3.442 113.377 3.994 113.749 4.63 114.025C5.254 114.289 5.944 114.421 6.7 114.421C7.444 114.421 8.134 114.289 8.77 114.025C9.406 113.749 9.964 113.377 10.444 112.909C10.912 112.429 11.278 111.865 11.542 111.217C11.794 110.569 11.92 109.867 11.92 109.111ZM13 99.5193L0.399997 99.5193L0.399997 94.8033C0.399997 93.7353 0.573997 92.8173 0.921997 92.0493C1.258 91.2813 1.75 90.6933 2.398 90.2853C3.034 89.8653 3.808 89.6553 4.72 89.6553C5.608 89.6553 6.376 89.8653 7.024 90.2853C7.66 90.6933 8.152 91.2813 8.5 92.0493C8.848 92.8173 9.022 93.7353 9.022 94.8033L9.022 98.7813L8.392 98.1873L13 98.1873L13 99.5193ZM8.5 98.1873L7.852 98.7813L7.852 94.8393C7.852 93.5793 7.582 92.6253 7.042 91.9773C6.49 91.3173 5.716 90.9873 4.72 90.9873C3.712 90.9873 2.932 91.3173 2.38 91.9773C1.828 92.6253 1.552 93.5793 1.552 94.8393L1.552 98.7813L0.921998 98.1873L8.5 98.1873ZM13.108 78.4144C13.108 79.3504 12.958 80.2504 12.658 81.1144C12.346 81.9664 11.95 82.6264 11.47 83.0944L10.444 82.5724C10.876 82.1284 11.242 81.5344 11.542 80.7904C11.83 80.0344 11.974 79.2424 11.974 78.4144C11.974 77.6224 11.878 76.9804 11.686 76.4884C11.482 75.9844 11.212 75.6184 10.876 75.3904C10.54 75.1504 10.168 75.0304 9.76 75.0304C9.268 75.0304 8.872 75.1744 8.572 75.4624C8.272 75.7384 8.038 76.1044 7.87 76.5604C7.69 77.0164 7.534 77.5204 7.402 78.0724C7.27 78.6244 7.132 79.1764 6.988 79.7284C6.832 80.2804 6.628 80.7904 6.376 81.2584C6.124 81.7144 5.794 82.0864 5.386 82.3744C4.966 82.6504 4.42 82.7884 3.748 82.7884C3.124 82.7884 2.554 82.6264 2.038 82.3024C1.51 81.9664 1.09 81.4564 0.777997 80.7724C0.453997 80.0884 0.291996 79.2124 0.291996 78.1444C0.291996 77.4364 0.393996 76.7344 0.597997 76.0384C0.789996 75.3424 1.06 74.7424 1.408 74.2384L2.47 74.6884C2.11 75.2284 1.846 75.8044 1.678 76.4164C1.51 77.0164 1.426 77.5984 1.426 78.1624C1.426 78.9184 1.528 79.5424 1.732 80.0344C1.936 80.5264 2.212 80.8924 2.56 81.1324C2.896 81.3604 3.28 81.4744 3.712 81.4744C4.204 81.4744 4.6 81.3364 4.9 81.0604C5.2 80.7724 5.434 80.4004 5.602 79.9444C5.77 79.4764 5.92 78.9664 6.052 78.4144C6.184 77.8624 6.328 77.3164 6.484 76.7764C6.64 76.2244 6.844 75.7204 7.096 75.2644C7.336 74.7964 7.66 74.4244 8.068 74.1484C8.476 73.8604 9.01 73.7164 9.67 73.7164C10.282 73.7164 10.852 73.8844 11.38 74.2204C11.896 74.5564 12.316 75.0724 12.64 75.7684C12.952 76.4524 13.108 77.3344 13.108 78.4144ZM13 70.8142L0.399996 70.8142L0.399996 66.0982C0.399996 65.0302 0.573996 64.1122 0.921996 63.3442C1.258 62.5762 1.75 61.9882 2.398 61.5802C3.034 61.1602 3.808 60.9502 4.72 60.9502C5.608 60.9502 6.376 61.1602 7.024 61.5802C7.66 61.9882 8.152 62.5762 8.5 63.3442C8.848 64.1122 9.022 65.0302 9.022 66.0982L9.022 70.0762L8.392 69.4822L13 69.4822L13 70.8142ZM8.5 69.4822L7.852 70.0762L7.852 66.1342C7.852 64.8742 7.582 63.9202 7.042 63.2722C6.49 62.6122 5.716 62.2822 4.72 62.2822C3.712 62.2822 2.932 62.6122 2.38 63.2722C1.828 63.9202 1.552 64.8742 1.552 66.1342L1.552 70.0762L0.921996 69.4822L8.5 69.4822ZM6.034 56.8821L6.034 50.2221L7.168 50.2221L7.168 56.8821L6.034 56.8821ZM11.848 56.7381L11.848 49.1601L13 49.1601L13 58.0701L0.399995 58.0701L0.399995 49.4301L1.552 49.4301L1.552 56.7381L11.848 56.7381ZM6.034 44.8411L6.03399 38.1811L7.168 38.1811L7.168 44.8411L6.034 44.8411ZM11.848 44.6971L11.848 37.1191L13 37.1191L13 46.0291L0.399995 46.0291L0.399994 37.3891L1.55199 37.3891L1.55199 44.6971L11.848 44.6971ZM13 33.988L0.399994 33.988L0.399994 28.858C0.399994 27.514 0.669994 26.338 1.20999 25.33C1.73799 24.31 2.47599 23.518 3.42399 22.954C4.37199 22.39 5.46399 22.108 6.69999 22.108C7.93599 22.108 9.02799 22.39 9.97599 22.954C10.924 23.518 11.668 24.31 12.208 25.33C12.736 26.338 13 27.514 13 28.858L13 33.988ZM11.848 32.656L11.848 28.93C11.848 27.814 11.632 26.848 11.2 26.032C10.756 25.204 10.15 24.562 9.38199 24.106C8.60199 23.65 7.70799 23.422 6.69999 23.422C5.67999 23.422 4.78599 23.65 4.01799 24.106C3.24999 24.562 2.64999 25.204 2.21799 26.032C1.77399 26.848 1.55199 27.814 1.55199 28.93L1.55199 32.656L11.848 32.656Z" fill="#3F3E44"/>
<path d="M49.468 122V121.388L52.96 117.968C53.28 117.656 53.52 117.384 53.68 117.152C53.84 116.912 53.948 116.688 54.004 116.48C54.06 116.272 54.088 116.076 54.088 115.892C54.088 115.404 53.92 115.02 53.584 114.74C53.256 114.46 52.768 114.32 52.12 114.32C51.624 114.32 51.184 114.396 50.8 114.548C50.424 114.7 50.1 114.936 49.828 115.256L49.216 114.728C49.544 114.344 49.964 114.048 50.476 113.84C50.988 113.632 51.56 113.528 52.192 113.528C52.76 113.528 53.252 113.62 53.668 113.804C54.084 113.98 54.404 114.24 54.628 114.584C54.86 114.928 54.976 115.332 54.976 115.796C54.976 116.068 54.936 116.336 54.856 116.6C54.784 116.864 54.648 117.144 54.448 117.44C54.256 117.728 53.972 118.056 53.596 118.424L50.392 121.568L50.152 121.232H55.36V122H49.468ZM58.4969 122L62.1209 113.984L62.3849 114.368H57.1889L57.6329 113.948V115.94H56.7809V113.6H62.9489V114.212L59.4329 122H58.4969ZM64.5313 122V121.388L68.0233 117.968C68.3433 117.656 68.5833 117.384 68.7433 117.152C68.9033 116.912 69.0113 116.688 69.0673 116.48C69.1233 116.272 69.1513 116.076 69.1513 115.892C69.1513 115.404 68.9833 115.02 68.6473 114.74C68.3193 114.46 67.8313 114.32 67.1833 114.32C66.6873 114.32 66.2473 114.396 65.8633 114.548C65.4873 114.7 65.1633 114.936 64.8913 115.256L64.2793 114.728C64.6073 114.344 65.0273 114.048 65.5393 113.84C66.0513 113.632 66.6233 113.528 67.2553 113.528C67.8233 113.528 68.3153 113.62 68.7313 113.804C69.1473 113.98 69.4673 114.24 69.6913 114.584C69.9233 114.928 70.0393 115.332 70.0393 115.796C70.0393 116.068 69.9993 116.336 69.9193 116.6C69.8473 116.864 69.7113 117.144 69.5113 117.44C69.3193 117.728 69.0353 118.056 68.6593 118.424L65.4553 121.568L65.2153 121.232H70.4233V122H64.5313ZM77.3602 119.912L77.3242 118.832L82.4122 113.6H83.4322L79.7242 117.488L79.2202 118.028L77.3602 119.912ZM76.5922 122V113.6H77.4802V122H76.5922ZM82.6282 122L79.0042 117.824L79.6042 117.176L83.6842 122H82.6282ZM85.7235 122V113.6H86.4555L90.2955 120.152H89.9115L93.7155 113.6H94.4475V122H93.5955V114.932H93.7995L90.2955 120.932H89.8755L86.3475 114.932H86.5755V122H85.7235ZM96.1164 123.2L100.076 111.896H100.856L96.8964 123.2H96.1164ZM108.548 113.6H109.424V122H108.548V113.6ZM103.292 122H102.404V113.6H103.292V122ZM108.632 118.124H103.196V117.344H108.632V118.124Z" fill="white"/>
<path d="M55.176 78.248L55.176 93H62.568L62.568 69.192H56.744C55.656 71.688 53.736 73.512 49.64 73.768V78.248H55.176ZM81.5873 93.48C93.5873 93.48 95.5713 88.808 95.5713 85.32V85.032C95.5713 81.288 93.2033 77.672 83.2193 77.672H82.8033C75.6353 77.672 73.6513 79.464 72.9153 79.976V79.848C72.9153 78.216 73.6513 74.28 80.5312 74.28C86.0993 74.28 86.7073 76.104 86.8673 76.36H94.5473V76.232C94.5473 73.064 91.9233 68.776 81.1713 68.776H79.8913C68.4033 68.776 65.4593 75.272 65.4593 80.744V81.512C65.4593 86.984 67.9233 93.48 80.1793 93.48H81.5873ZM73.8753 85.224C73.8753 84.008 74.9313 82.664 80.8513 82.664C86.9633 82.664 87.7633 84.104 87.7633 85.288V85.416C87.7633 86.536 86.9633 88.072 80.8513 88.072C74.9633 88.072 73.8753 86.44 73.8753 85.32V85.224ZM118.369 76.936C118.369 78.088 117.377 79.624 111.393 79.624C105.345 79.624 104.513 78.12 104.513 76.936V76.84C104.513 75.72 105.345 74.216 111.393 74.216C117.249 74.216 118.369 75.72 118.369 76.84V76.936ZM112.545 93.48C124.129 93.48 126.817 87.112 126.817 81.512V80.744C126.817 74.504 123.841 68.776 111.969 68.776H110.561C98.2408 68.776 96.6728 73.416 96.6728 76.936V77.224C96.6728 81 99.4568 84.616 109.441 84.616H109.857C116.513 84.616 118.657 82.824 119.329 82.312V82.408C119.329 84.04 118.561 87.976 111.745 87.976C106.241 87.976 105.505 86.248 105.409 85.896L97.6968 85.896V86.024C97.6968 89.096 100.705 93.48 111.265 93.48H112.545ZM139.387 93H146.555V76.52L155.931 93L159.931 93L169.307 76.52V93H176.667V69.192L166.459 69.192L158.203 84.008L149.979 69.192H139.387V93ZM198.18 85.064C206.692 85.064 209.284 81.512 209.284 77.256V76.936C209.284 72.584 206.756 69.192 198.18 69.192H180.324V93H187.78V85.064H198.18ZM187.78 74.6H198.052C200.452 74.6 201.508 75.496 201.508 77.128V77.224C201.508 78.856 200.388 79.72 198.052 79.72H187.78V74.6ZM211.762 93H219.218V83.624H235.218V93H242.674V69.192H235.218V77.864H219.218V69.192H211.762V93Z" fill="white"/>
<path d="M53.068 36.072C52.324 36.072 51.696 35.908 51.184 35.58C50.672 35.244 50.284 34.764 50.02 34.14C49.756 33.508 49.624 32.752 49.624 31.872C49.624 30.92 49.784 30.124 50.104 29.484C50.432 28.836 50.884 28.348 51.46 28.02C52.036 27.692 52.704 27.528 53.464 27.528C53.84 27.528 54.2 27.564 54.544 27.636C54.888 27.708 55.192 27.824 55.456 27.984L55.108 28.68C54.892 28.536 54.644 28.436 54.364 28.38C54.084 28.316 53.788 28.284 53.476 28.284C52.572 28.284 51.848 28.572 51.304 29.148C50.768 29.724 50.5 30.584 50.5 31.728C50.5 31.904 50.508 32.124 50.524 32.388C50.548 32.644 50.596 32.9 50.668 33.156L50.368 32.928C50.456 32.512 50.628 32.16 50.884 31.872C51.14 31.576 51.46 31.352 51.844 31.2C52.228 31.048 52.648 30.972 53.104 30.972C53.664 30.972 54.156 31.076 54.58 31.284C55.004 31.492 55.336 31.784 55.576 32.16C55.816 32.536 55.936 32.98 55.936 33.492C55.936 34.012 55.812 34.468 55.564 34.86C55.316 35.244 54.972 35.544 54.532 35.76C54.1 35.968 53.612 36.072 53.068 36.072ZM53.032 35.34C53.432 35.34 53.784 35.268 54.088 35.124C54.4 34.972 54.644 34.76 54.82 34.488C54.996 34.208 55.084 33.884 55.084 33.516C55.084 32.964 54.892 32.524 54.508 32.196C54.132 31.868 53.62 31.704 52.972 31.704C52.54 31.704 52.164 31.784 51.844 31.944C51.524 32.104 51.272 32.324 51.088 32.604C50.904 32.876 50.812 33.188 50.812 33.54C50.812 33.844 50.896 34.136 51.064 34.416C51.232 34.688 51.48 34.912 51.808 35.088C52.144 35.256 52.552 35.34 53.032 35.34ZM57.6911 33.12V32.376H60.8351V33.12H57.6911ZM65.6262 36.072C65.0022 36.072 64.4022 35.972 63.8262 35.772C63.2582 35.564 62.8182 35.3 62.5062 34.98L62.8542 34.296C63.1502 34.584 63.5462 34.828 64.0422 35.028C64.5462 35.22 65.0742 35.316 65.6262 35.316C66.1542 35.316 66.5822 35.252 66.9102 35.124C67.2462 34.988 67.4902 34.808 67.6422 34.584C67.8022 34.36 67.8822 34.112 67.8822 33.84C67.8822 33.512 67.7862 33.248 67.5942 33.048C67.4102 32.848 67.1662 32.692 66.8622 32.58C66.5582 32.46 66.2222 32.356 65.8542 32.268C65.4862 32.18 65.1182 32.088 64.7502 31.992C64.3822 31.888 64.0422 31.752 63.7302 31.584C63.4262 31.416 63.1782 31.196 62.9862 30.924C62.8022 30.644 62.7102 30.28 62.7102 29.832C62.7102 29.416 62.8182 29.036 63.0342 28.692C63.2582 28.34 63.5982 28.06 64.0542 27.852C64.5102 27.636 65.0942 27.528 65.8062 27.528C66.2782 27.528 66.7462 27.596 67.2102 27.732C67.6742 27.86 68.0742 28.04 68.4102 28.272L68.1102 28.98C67.7502 28.74 67.3662 28.564 66.9582 28.452C66.5582 28.34 66.1702 28.284 65.7942 28.284C65.2902 28.284 64.8742 28.352 64.5462 28.488C64.2182 28.624 63.9742 28.808 63.8142 29.04C63.6622 29.264 63.5862 29.52 63.5862 29.808C63.5862 30.136 63.6782 30.4 63.8622 30.6C64.0542 30.8 64.3022 30.956 64.6062 31.068C64.9182 31.18 65.2582 31.28 65.6262 31.368C65.9942 31.456 66.3582 31.552 66.7182 31.656C67.0862 31.76 67.4222 31.896 67.7262 32.064C68.0382 32.224 68.2862 32.44 68.4702 32.712C68.6622 32.984 68.7582 33.34 68.7582 33.78C68.7582 34.188 68.6462 34.568 68.4222 34.92C68.1982 35.264 67.8542 35.544 67.3902 35.76C66.9342 35.968 66.3462 36.072 65.6262 36.072ZM71.293 36V27.6H74.437C75.149 27.6 75.761 27.716 76.273 27.948C76.785 28.172 77.177 28.5 77.449 28.932C77.729 29.356 77.869 29.872 77.869 30.48C77.869 31.072 77.729 31.584 77.449 32.016C77.177 32.44 76.785 32.768 76.273 33C75.761 33.232 75.149 33.348 74.437 33.348H71.785L72.181 32.928V36H71.293ZM72.181 33L71.785 32.568H74.413C75.253 32.568 75.889 32.388 76.321 32.028C76.761 31.66 76.981 31.144 76.981 30.48C76.981 29.808 76.761 29.288 76.321 28.92C75.889 28.552 75.253 28.368 74.413 28.368H71.785L72.181 27.948V33ZM81.1811 31.356H85.6211V32.112H81.1811V31.356ZM81.2771 35.232H86.3291V36H80.3891V27.6H86.1491V28.368H81.2771V35.232ZM89.8084 31.356H94.2484V32.112H89.8084V31.356ZM89.9044 35.232H94.9564V36H89.0164V27.6H94.7764V28.368H89.9044V35.232ZM97.6438 36V27.6H101.064C101.96 27.6 102.744 27.78 103.416 28.14C104.096 28.492 104.624 28.984 105 29.616C105.376 30.248 105.564 30.976 105.564 31.8C105.564 32.624 105.376 33.352 105 33.984C104.624 34.616 104.096 35.112 103.416 35.472C102.744 35.824 101.96 36 101.064 36H97.6438ZM98.5318 35.232H101.016C101.76 35.232 102.404 35.088 102.948 34.8C103.5 34.504 103.928 34.1 104.232 33.588C104.536 33.068 104.688 32.472 104.688 31.8C104.688 31.12 104.536 30.524 104.232 30.012C103.928 29.5 103.5 29.1 102.948 28.812C102.404 28.516 101.76 28.368 101.016 28.368H98.5318V35.232ZM115.546 36.072C114.914 36.072 114.33 35.968 113.794 35.76C113.258 35.544 112.794 35.244 112.402 34.86C112.01 34.476 111.702 34.024 111.478 33.504C111.262 32.984 111.154 32.416 111.154 31.8C111.154 31.184 111.262 30.616 111.478 30.096C111.702 29.576 112.01 29.124 112.402 28.74C112.802 28.356 113.27 28.06 113.806 27.852C114.342 27.636 114.926 27.528 115.558 27.528C116.166 27.528 116.738 27.632 117.274 27.84C117.81 28.04 118.262 28.344 118.63 28.752L118.066 29.316C117.722 28.964 117.342 28.712 116.926 28.56C116.51 28.4 116.062 28.32 115.582 28.32C115.078 28.32 114.61 28.408 114.178 28.584C113.746 28.752 113.37 28.996 113.05 29.316C112.73 29.628 112.478 29.996 112.294 30.42C112.118 30.836 112.03 31.296 112.03 31.8C112.03 32.304 112.118 32.768 112.294 33.192C112.478 33.608 112.73 33.976 113.05 34.296C113.37 34.608 113.746 34.852 114.178 35.028C114.61 35.196 115.078 35.28 115.582 35.28C116.062 35.28 116.51 35.2 116.926 35.04C117.342 34.88 117.722 34.624 118.066 34.272L118.63 34.836C118.262 35.244 117.81 35.552 117.274 35.76C116.738 35.968 116.162 36.072 115.546 36.072ZM124.62 36.072C123.988 36.072 123.4 35.968 122.856 35.76C122.32 35.544 121.852 35.244 121.452 34.86C121.06 34.468 120.752 34.016 120.528 33.504C120.312 32.984 120.204 32.416 120.204 31.8C120.204 31.184 120.312 30.62 120.528 30.108C120.752 29.588 121.06 29.136 121.452 28.752C121.852 28.36 122.32 28.06 122.856 27.852C123.392 27.636 123.98 27.528 124.62 27.528C125.252 27.528 125.836 27.636 126.372 27.852C126.908 28.06 127.372 28.356 127.764 28.74C128.164 29.124 128.472 29.576 128.688 30.096C128.912 30.616 129.024 31.184 129.024 31.8C129.024 32.416 128.912 32.984 128.688 33.504C128.472 34.024 128.164 34.476 127.764 34.86C127.372 35.244 126.908 35.544 126.372 35.76C125.836 35.968 125.252 36.072 124.62 36.072ZM124.62 35.28C125.124 35.28 125.588 35.196 126.012 35.028C126.444 34.852 126.816 34.608 127.128 34.296C127.448 33.976 127.696 33.608 127.872 33.192C128.048 32.768 128.136 32.304 128.136 31.8C128.136 31.296 128.048 30.836 127.872 30.42C127.696 29.996 127.448 29.628 127.128 29.316C126.816 28.996 126.444 28.752 126.012 28.584C125.588 28.408 125.124 28.32 124.62 28.32C124.116 28.32 123.648 28.408 123.216 28.584C122.784 28.752 122.408 28.996 122.088 29.316C121.776 29.628 121.528 29.996 121.344 30.42C121.168 30.836 121.08 31.296 121.08 31.8C121.08 32.296 121.168 32.756 121.344 33.18C121.528 33.604 121.776 33.976 122.088 34.296C122.408 34.608 122.784 34.852 123.216 35.028C123.648 35.196 124.116 35.28 124.62 35.28ZM131.614 36V27.6H132.346L138.142 34.896H137.758V27.6H138.634V36H137.902L132.118 28.704H132.502V36H131.614ZM144.292 36.072C143.668 36.072 143.068 35.972 142.492 35.772C141.924 35.564 141.484 35.3 141.172 34.98L141.52 34.296C141.816 34.584 142.212 34.828 142.708 35.028C143.212 35.22 143.74 35.316 144.292 35.316C144.82 35.316 145.248 35.252 145.576 35.124C145.912 34.988 146.156 34.808 146.308 34.584C146.468 34.36 146.548 34.112 146.548 33.84C146.548 33.512 146.452 33.248 146.26 33.048C146.076 32.848 145.832 32.692 145.528 32.58C145.224 32.46 144.888 32.356 144.52 32.268C144.152 32.18 143.784 32.088 143.416 31.992C143.048 31.888 142.708 31.752 142.396 31.584C142.092 31.416 141.844 31.196 141.652 30.924C141.468 30.644 141.376 30.28 141.376 29.832C141.376 29.416 141.484 29.036 141.7 28.692C141.924 28.34 142.264 28.06 142.72 27.852C143.176 27.636 143.76 27.528 144.472 27.528C144.944 27.528 145.412 27.596 145.876 27.732C146.34 27.86 146.74 28.04 147.076 28.272L146.776 28.98C146.416 28.74 146.032 28.564 145.624 28.452C145.224 28.34 144.836 28.284 144.46 28.284C143.956 28.284 143.54 28.352 143.212 28.488C142.884 28.624 142.64 28.808 142.48 29.04C142.328 29.264 142.252 29.52 142.252 29.808C142.252 30.136 142.344 30.4 142.528 30.6C142.72 30.8 142.968 30.956 143.272 31.068C143.584 31.18 143.924 31.28 144.292 31.368C144.66 31.456 145.024 31.552 145.384 31.656C145.752 31.76 146.088 31.896 146.392 32.064C146.704 32.224 146.952 32.44 147.136 32.712C147.328 32.984 147.424 33.34 147.424 33.78C147.424 34.188 147.312 34.568 147.088 34.92C146.864 35.264 146.52 35.544 146.056 35.76C145.6 35.968 145.012 36.072 144.292 36.072ZM151.473 36V28.368H148.521V27.6H155.313V28.368H152.361V36H151.473ZM155.566 36L159.406 27.6H160.282L164.122 36H163.186L159.658 28.116H160.018L156.49 36H155.566ZM157.078 33.756L157.342 33.036H162.226L162.49 33.756H157.078ZM166.112 36V27.6H166.844L172.64 34.896H172.256V27.6H173.132V36H172.4L166.616 28.704H167V36H166.112ZM178.105 36V28.368H175.153V27.6H181.945V28.368H178.993V36H178.105ZM182.929 33.12V32.376H186.073V33.12H182.929ZM188.759 36V27.6H189.491L193.331 34.152H192.947L196.751 27.6H197.483V36H196.631V28.932H196.835L193.331 34.932H192.911L189.383 28.932H189.611V36H188.759ZM201.612 31.356H206.052V32.112H201.612V31.356ZM201.708 35.232H206.76V36H200.82V27.6H206.58V28.368H201.708V35.232ZM211.764 36.072C211.14 36.072 210.54 35.972 209.964 35.772C209.396 35.564 208.956 35.3 208.644 34.98L208.992 34.296C209.288 34.584 209.684 34.828 210.18 35.028C210.684 35.22 211.212 35.316 211.764 35.316C212.292 35.316 212.72 35.252 213.048 35.124C213.384 34.988 213.628 34.808 213.78 34.584C213.94 34.36 214.02 34.112 214.02 33.84C214.02 33.512 213.924 33.248 213.732 33.048C213.548 32.848 213.304 32.692 213 32.58C212.696 32.46 212.36 32.356 211.992 32.268C211.624 32.18 211.256 32.088 210.888 31.992C210.52 31.888 210.18 31.752 209.868 31.584C209.564 31.416 209.316 31.196 209.124 30.924C208.94 30.644 208.848 30.28 208.848 29.832C208.848 29.416 208.956 29.036 209.172 28.692C209.396 28.34 209.736 28.06 210.192 27.852C210.648 27.636 211.232 27.528 211.944 27.528C212.416 27.528 212.884 27.596 213.348 27.732C213.812 27.86 214.212 28.04 214.548 28.272L214.248 28.98C213.888 28.74 213.504 28.564 213.096 28.452C212.696 28.34 212.308 28.284 211.932 28.284C211.428 28.284 211.012 28.352 210.684 28.488C210.356 28.624 210.112 28.808 209.952 29.04C209.8 29.264 209.724 29.52 209.724 29.808C209.724 30.136 209.816 30.4 210 30.6C210.192 30.8 210.44 30.956 210.744 31.068C211.056 31.18 211.396 31.28 211.764 31.368C212.132 31.456 212.496 31.552 212.856 31.656C213.224 31.76 213.56 31.896 213.864 32.064C214.176 32.224 214.424 32.44 214.608 32.712C214.8 32.984 214.896 33.34 214.896 33.78C214.896 34.188 214.784 34.568 214.56 34.92C214.336 35.264 213.992 35.544 213.528 35.76C213.072 35.968 212.484 36.072 211.764 36.072ZM223.575 27.6H224.451V36H223.575V27.6ZM218.319 36H217.431V27.6H218.319V36ZM223.659 32.124H218.223V31.344H223.659V32.124Z" fill="white"/>
</svg>
