<svg width="306" height="148" viewBox="0 0 306 148" fill="none" xmlns="http://www.w3.org/2000/svg">
<path d="M13 109.332L1.552 109.332L1.552 113.76L0.399998 113.76L0.399997 103.572L1.552 103.572L1.552 108L13 108L13 109.332ZM13.108 96.1119C13.108 97.0599 12.952 97.9419 12.64 98.7579C12.316 99.5619 11.866 100.264 11.29 100.864C10.702 101.452 10.024 101.914 9.256 102.25C8.476 102.574 7.624 102.736 6.7 102.736C5.776 102.736 4.93 102.574 4.162 102.25C3.382 101.914 2.704 101.452 2.128 100.864C1.54 100.264 1.09 99.5619 0.777997 98.7579C0.453997 97.9539 0.291997 97.0719 0.291997 96.1119C0.291997 95.1639 0.453997 94.2879 0.777997 93.4839C1.09 92.6799 1.534 91.9839 2.11 91.3959C2.686 90.7959 3.364 90.3339 4.144 90.0099C4.924 89.6739 5.776 89.5059 6.7 89.5059C7.624 89.5059 8.476 89.6739 9.256 90.0099C10.036 90.3339 10.714 90.7959 11.29 91.3959C11.866 91.9839 12.316 92.6799 12.64 93.4839C12.952 94.2879 13.108 95.1639 13.108 96.1119ZM11.92 96.1119C11.92 95.3559 11.794 94.6599 11.542 94.0239C11.278 93.3759 10.912 92.8179 10.444 92.3499C9.964 91.8699 9.412 91.4979 8.788 91.2339C8.152 90.9699 7.456 90.8379 6.7 90.8379C5.944 90.8379 5.254 90.9699 4.63 91.2339C3.994 91.4979 3.442 91.8699 2.974 92.3499C2.494 92.8179 2.128 93.3759 1.876 94.0239C1.612 94.6599 1.48 95.3559 1.48 96.1119C1.48 96.8679 1.612 97.5699 1.876 98.2179C2.128 98.8659 2.494 99.4299 2.974 99.9099C3.442 100.378 3.994 100.75 4.63 101.026C5.254 101.29 5.944 101.422 6.7 101.422C7.444 101.422 8.134 101.29 8.77 101.026C9.406 100.75 9.964 100.378 10.444 99.9099C10.912 99.4299 11.278 98.8659 11.542 98.2179C11.794 97.5699 11.92 96.8679 11.92 96.1119ZM13 86.5203L0.399996 86.5203L0.399996 81.8043C0.399996 80.7363 0.573996 79.8183 0.921997 79.0503C1.258 78.2823 1.75 77.6943 2.398 77.2863C3.034 76.8663 3.808 76.6563 4.72 76.6563C5.608 76.6563 6.376 76.8663 7.024 77.2863C7.66 77.6943 8.152 78.2823 8.5 79.0503C8.836 79.8183 9.004 80.7363 9.004 81.8043L9.004 85.7823L8.392 85.1883L13 85.1883L13 86.5203ZM13 77.9163L8.428 81.1563L8.428 79.7163L13 76.4583L13 77.9163ZM8.5 85.1883L7.87 85.7823L7.87 81.8403C7.87 80.5803 7.594 79.6263 7.042 78.9783C6.49 78.3183 5.716 77.9883 4.72 77.9883C3.712 77.9883 2.932 78.3183 2.38 78.9783C1.828 79.6263 1.552 80.5803 1.552 81.8403L1.552 85.7823L0.921997 85.1883L8.5 85.1883ZM13.108 68.0045C13.108 68.9525 12.952 69.8345 12.64 70.6505C12.316 71.4545 11.866 72.1565 11.29 72.7565C10.702 73.3445 10.024 73.8065 9.256 74.1425C8.476 74.4665 7.624 74.6285 6.7 74.6285C5.776 74.6285 4.93 74.4665 4.162 74.1425C3.382 73.8065 2.704 73.3445 2.128 72.7565C1.54 72.1565 1.09 71.4545 0.777996 70.6505C0.453996 69.8465 0.291996 68.9645 0.291996 68.0045C0.291996 67.0565 0.453996 66.1805 0.777996 65.3765C1.09 64.5725 1.534 63.8765 2.11 63.2885C2.686 62.6885 3.364 62.2265 4.144 61.9025C4.924 61.5665 5.776 61.3985 6.7 61.3985C7.624 61.3985 8.476 61.5665 9.256 61.9025C10.036 62.2265 10.714 62.6885 11.29 63.2885C11.866 63.8765 12.316 64.5725 12.64 65.3765C12.952 66.1805 13.108 67.0565 13.108 68.0045ZM15.502 63.8825C15.502 64.2665 15.454 64.6385 15.358 64.9985C15.262 65.3585 15.106 65.7245 14.89 66.0965C14.686 66.4565 14.416 66.8285 14.08 67.2125C13.744 67.5965 13.336 68.0165 12.856 68.4725L12.496 67.0145C12.94 66.6425 13.306 66.2825 13.594 65.9345C13.882 65.5745 14.092 65.2265 14.224 64.8905C14.368 64.5425 14.44 64.2005 14.44 63.8645C14.44 62.9285 14.056 62.1305 13.288 61.4705L14.062 60.8225C15.022 61.6145 15.502 62.6345 15.502 63.8825ZM11.92 68.0045C11.92 67.2485 11.794 66.5525 11.542 65.9165C11.278 65.2685 10.906 64.7105 10.426 64.2425C9.946 63.7625 9.394 63.3905 8.77 63.1265C8.134 62.8625 7.444 62.7305 6.7 62.7305C5.944 62.7305 5.254 62.8625 4.63 63.1265C3.994 63.3905 3.442 63.7625 2.974 64.2425C2.494 64.7105 2.128 65.2685 1.876 65.9165C1.612 66.5525 1.48 67.2485 1.48 68.0045C1.48 68.7605 1.612 69.4625 1.876 70.1105C2.128 70.7585 2.494 71.3225 2.974 71.8025C3.442 72.2705 3.994 72.6425 4.63 72.9185C5.254 73.1825 5.944 73.3145 6.7 73.3145C7.444 73.3145 8.134 73.1825 8.77 72.9185C9.394 72.6425 9.946 72.2705 10.426 71.8025C10.906 71.3225 11.278 70.7585 11.542 70.1105C11.794 69.4625 11.92 68.7605 11.92 68.0045ZM13.108 53.3368C13.108 54.9448 12.646 56.2108 11.722 57.1348C10.798 58.0588 9.43 58.5208 7.618 58.5208L0.399995 58.5208L0.399995 57.1888L7.564 57.1888C9.052 57.1888 10.15 56.8528 10.858 56.1808C11.566 55.5088 11.92 54.5608 11.92 53.3368C11.92 52.1008 11.566 51.1468 10.858 50.4748C10.15 49.8028 9.052 49.4668 7.564 49.4668L0.399995 49.4668L0.399995 48.1708L7.618 48.1708C9.43 48.1708 10.798 48.6328 11.722 49.5568C12.646 50.4688 13.108 51.7288 13.108 53.3368ZM6.03399 42.969L6.03399 36.309L7.168 36.309L7.168 42.969L6.03399 42.969ZM11.848 42.825L11.848 35.247L13 35.247L13 44.157L0.399995 44.157L0.399994 35.517L1.55199 35.517L1.55199 42.825L11.848 42.825Z" fill="#3F3E44"/>
<path d="M52.24 113.528C52.984 113.528 53.612 113.696 54.124 114.032C54.636 114.36 55.024 114.836 55.288 115.46C55.552 116.084 55.684 116.84 55.684 117.728C55.684 118.672 55.52 119.468 55.192 120.116C54.872 120.764 54.424 121.252 53.848 121.58C53.272 121.908 52.604 122.072 51.844 122.072C51.468 122.072 51.108 122.036 50.764 121.964C50.428 121.892 50.124 121.776 49.852 121.616L50.2 120.92C50.416 121.064 50.664 121.168 50.944 121.232C51.232 121.288 51.528 121.316 51.832 121.316C52.736 121.316 53.456 121.028 53.992 120.452C54.536 119.876 54.808 119.016 54.808 117.872C54.808 117.688 54.796 117.468 54.772 117.212C54.756 116.956 54.712 116.7 54.64 116.444L54.94 116.672C54.86 117.088 54.688 117.444 54.424 117.74C54.168 118.028 53.848 118.248 53.464 118.4C53.088 118.552 52.668 118.628 52.204 118.628C51.652 118.628 51.16 118.524 50.728 118.316C50.304 118.108 49.972 117.816 49.732 117.44C49.492 117.064 49.372 116.62 49.372 116.108C49.372 115.58 49.496 115.124 49.744 114.74C49.992 114.356 50.332 114.06 50.764 113.852C51.204 113.636 51.696 113.528 52.24 113.528ZM52.276 114.26C51.876 114.26 51.52 114.336 51.208 114.488C50.904 114.632 50.664 114.84 50.488 115.112C50.312 115.384 50.224 115.708 50.224 116.084C50.224 116.636 50.412 117.076 50.788 117.404C51.172 117.732 51.688 117.896 52.336 117.896C52.768 117.896 53.144 117.816 53.464 117.656C53.792 117.496 54.044 117.276 54.22 116.996C54.404 116.716 54.496 116.404 54.496 116.06C54.496 115.748 54.412 115.456 54.244 115.184C54.076 114.912 53.828 114.692 53.5 114.524C53.172 114.348 52.764 114.26 52.276 114.26ZM60.9805 122.072C60.2365 122.072 59.6085 121.908 59.0965 121.58C58.5845 121.244 58.1965 120.764 57.9325 120.14C57.6685 119.508 57.5365 118.752 57.5365 117.872C57.5365 116.92 57.6965 116.124 58.0165 115.484C58.3445 114.836 58.7965 114.348 59.3725 114.02C59.9485 113.692 60.6165 113.528 61.3765 113.528C61.7525 113.528 62.1125 113.564 62.4565 113.636C62.8005 113.708 63.1045 113.824 63.3685 113.984L63.0205 114.68C62.8045 114.536 62.5565 114.436 62.2765 114.38C61.9965 114.316 61.7005 114.284 61.3885 114.284C60.4845 114.284 59.7605 114.572 59.2165 115.148C58.6805 115.724 58.4125 116.584 58.4125 117.728C58.4125 117.904 58.4205 118.124 58.4365 118.388C58.4605 118.644 58.5085 118.9 58.5805 119.156L58.2805 118.928C58.3685 118.512 58.5405 118.16 58.7965 117.872C59.0525 117.576 59.3725 117.352 59.7565 117.2C60.1405 117.048 60.5605 116.972 61.0165 116.972C61.5765 116.972 62.0685 117.076 62.4925 117.284C62.9165 117.492 63.2485 117.784 63.4885 118.16C63.7285 118.536 63.8485 118.98 63.8485 119.492C63.8485 120.012 63.7245 120.468 63.4765 120.86C63.2285 121.244 62.8845 121.544 62.4445 121.76C62.0125 121.968 61.5245 122.072 60.9805 122.072ZM60.9445 121.34C61.3445 121.34 61.6965 121.268 62.0005 121.124C62.3125 120.972 62.5565 120.76 62.7325 120.488C62.9085 120.208 62.9965 119.884 62.9965 119.516C62.9965 118.964 62.8045 118.524 62.4205 118.196C62.0445 117.868 61.5325 117.704 60.8845 117.704C60.4525 117.704 60.0765 117.784 59.7565 117.944C59.4365 118.104 59.1845 118.324 59.0005 118.604C58.8165 118.876 58.7245 119.188 58.7245 119.54C58.7245 119.844 58.8085 120.136 58.9765 120.416C59.1445 120.688 59.3925 120.912 59.7205 121.088C60.0565 121.256 60.4645 121.34 60.9445 121.34ZM66.2142 122.06C66.0382 122.06 65.8862 121.996 65.7582 121.868C65.6382 121.74 65.5782 121.584 65.5782 121.4C65.5782 121.208 65.6382 121.052 65.7582 120.932C65.8862 120.812 66.0382 120.752 66.2142 120.752C66.3902 120.752 66.5382 120.812 66.6582 120.932C66.7862 121.052 66.8502 121.208 66.8502 121.4C66.8502 121.584 66.7862 121.74 66.6582 121.868C66.5382 121.996 66.3902 122.06 66.2142 122.06ZM71.3343 122.072C70.7263 122.072 70.1503 121.976 69.6063 121.784C69.0703 121.584 68.6383 121.32 68.3103 120.992L68.7303 120.308C69.0023 120.588 69.3663 120.82 69.8223 121.004C70.2863 121.188 70.7903 121.28 71.3343 121.28C72.0303 121.28 72.5623 121.128 72.9303 120.824C73.3063 120.52 73.4943 120.112 73.4943 119.6C73.4943 119.088 73.3103 118.68 72.9423 118.376C72.5823 118.072 72.0103 117.92 71.2263 117.92H70.6263V117.284L73.2183 114.032L73.3383 114.368H68.6583V113.6H74.0583V114.212L71.4663 117.464L71.0463 117.188H71.3703C72.3783 117.188 73.1303 117.412 73.6263 117.86C74.1303 118.308 74.3823 118.884 74.3823 119.588C74.3823 120.06 74.2703 120.484 74.0463 120.86C73.8223 121.236 73.4823 121.532 73.0263 121.748C72.5783 121.964 72.0143 122.072 71.3343 122.072ZM80.6844 122V113.6H81.5724V121.232H86.2764V122H80.6844ZM88.3508 122V113.6H91.9748C92.9108 113.6 93.6348 113.788 94.1468 114.164C94.6668 114.54 94.9268 115.072 94.9268 115.76C94.9268 116.216 94.8188 116.6 94.6028 116.912C94.3948 117.224 94.1068 117.46 93.7388 117.62C93.3788 117.78 92.9828 117.86 92.5508 117.86L92.7548 117.572C93.2908 117.572 93.7508 117.656 94.1348 117.824C94.5268 117.984 94.8308 118.228 95.0468 118.556C95.2628 118.876 95.3708 119.276 95.3708 119.756C95.3708 120.468 95.1068 121.02 94.5788 121.412C94.0588 121.804 93.2708 122 92.2148 122H88.3508ZM89.2388 121.268H92.2028C92.9388 121.268 93.5028 121.144 93.8948 120.896C94.2868 120.64 94.4828 120.236 94.4828 119.684C94.4828 119.14 94.2868 118.744 93.8948 118.496C93.5028 118.24 92.9388 118.112 92.2028 118.112H89.1428V117.38H91.9148C92.5868 117.38 93.1068 117.252 93.4748 116.996C93.8508 116.74 94.0388 116.36 94.0388 115.856C94.0388 115.344 93.8508 114.964 93.4748 114.716C93.1068 114.46 92.5868 114.332 91.9148 114.332H89.2388V121.268ZM98.7897 117.668H103.23V118.436H98.7897V117.668ZM98.8857 122H97.9977V113.6H103.758V114.368H98.8857V122ZM106.203 118.424C106.623 118.424 106.971 118.076 106.971 117.656C106.971 117.236 106.623 116.888 106.203 116.888C105.783 116.888 105.435 117.236 105.435 117.656C105.435 118.076 105.783 118.424 106.203 118.424ZM110.349 117.668H114.789V118.436H110.349V117.668ZM110.445 122H109.557V113.6H115.317V114.368H110.445V122ZM119.441 122V114.368H116.489V113.6H123.281V114.368H120.329V122H119.441Z" fill="white"/>
<path d="M55.176 78.248L55.176 93H62.568L62.568 69.192H56.744C55.656 71.688 53.736 73.512 49.64 73.768V78.248H55.176ZM80.7233 93.416C92.4673 93.416 94.9953 89.288 94.9953 85.288V85.064C94.9953 81.384 92.3393 79.752 90.4513 79.24C91.9873 78.888 94.2593 77.608 94.2593 75.112V74.92C94.2593 72.36 92.7873 68.776 80.0513 68.776H78.7073C66.0673 68.776 65.1073 74.44 65.1073 76.616V76.936H72.8833C72.9792 76.424 73.0433 74.216 79.4113 74.216C85.9393 74.216 86.4513 75.432 86.4513 76.296C86.4513 77.096 86.0033 77.864 83.3472 77.864H75.3153V83.4H83.7313C86.5473 83.4 87.0593 84.328 87.0593 85.256C87.0593 86.216 86.6753 87.912 79.8913 87.912C73.3313 87.912 72.9792 84.904 72.8833 84.296H65.0433V84.552C65.0433 86.984 66.2593 93.416 79.2193 93.416H80.7233ZM130.025 80.552C130.025 76.328 128.073 68.776 113.961 68.776H112.553C98.473 68.776 96.489 76.328 96.489 80.552V81.512C96.489 85.704 98.473 93.416 112.553 93.416H113.961C128.105 93.416 130.025 85.672 130.025 81.512V80.552ZM122.217 81.224C122.217 83.944 120.521 87.592 113.257 87.592C105.993 87.592 104.297 83.848 104.297 81.16V80.776C104.297 78.088 105.833 74.568 113.257 74.568C120.553 74.568 122.217 78.088 122.217 80.776V81.224ZM138.27 87.4H130.558V93H138.27V87.4ZM155.002 93.416C165.882 93.416 168.186 88.84 168.186 84.968V84.776C168.186 80.424 166.042 76.776 156.602 76.776H156.314C150.49 76.776 148.282 78.632 147.834 78.984V74.728H166.522V69.192H140.506V83.816H147.77C147.834 83.592 148.506 81.896 154.234 81.896C159.706 81.896 160.378 83.496 160.378 84.808V85C160.378 86.312 159.706 87.912 154.234 87.912C148.474 87.912 147.962 85.896 147.866 85.544H139.994V85.768C139.994 88.104 141.53 93.416 153.498 93.416H155.002ZM180.512 69.192V93H187.872V77.224L204.032 93H211.392V69.192H204.032V84.168L188.832 69.192H180.512ZM234.73 93H241.898V76.52L251.274 93H255.274L264.65 76.52V93H272.01V69.192H261.802L253.546 84.008L245.322 69.192H234.73V93Z" fill="white"/>
<path d="M52.816 36.072C52.144 36.072 51.564 35.976 51.076 35.784C50.596 35.592 50.224 35.316 49.96 34.956C49.704 34.588 49.576 34.156 49.576 33.66C49.576 33.18 49.7 32.772 49.948 32.436C50.204 32.092 50.572 31.828 51.052 31.644C51.54 31.46 52.128 31.368 52.816 31.368C53.496 31.368 54.08 31.46 54.568 31.644C55.056 31.828 55.428 32.092 55.684 32.436C55.948 32.772 56.08 33.18 56.08 33.66C56.08 34.156 55.948 34.588 55.684 34.956C55.42 35.316 55.044 35.592 54.556 35.784C54.068 35.976 53.488 36.072 52.816 36.072ZM52.816 35.34C53.56 35.34 54.14 35.188 54.556 34.884C54.98 34.58 55.192 34.168 55.192 33.648C55.192 33.128 54.98 32.72 54.556 32.424C54.14 32.12 53.56 31.968 52.816 31.968C52.072 31.968 51.492 32.12 51.076 32.424C50.66 32.72 50.452 33.128 50.452 33.648C50.452 34.168 50.66 34.58 51.076 34.884C51.492 35.188 52.072 35.34 52.816 35.34ZM52.816 31.86C52.192 31.86 51.66 31.776 51.22 31.608C50.788 31.44 50.456 31.2 50.224 30.888C49.992 30.568 49.876 30.188 49.876 29.748C49.876 29.284 49.996 28.888 50.236 28.56C50.484 28.224 50.828 27.968 51.268 27.792C51.708 27.616 52.224 27.528 52.816 27.528C53.408 27.528 53.924 27.616 54.364 27.792C54.812 27.968 55.16 28.224 55.408 28.56C55.656 28.888 55.78 29.284 55.78 29.748C55.78 30.188 55.664 30.568 55.432 30.888C55.2 31.2 54.86 31.44 54.412 31.608C53.972 31.776 53.44 31.86 52.816 31.86ZM52.816 31.284C53.472 31.284 53.984 31.148 54.352 30.876C54.72 30.604 54.904 30.24 54.904 29.784C54.904 29.304 54.712 28.932 54.328 28.668C53.952 28.396 53.448 28.26 52.816 28.26C52.184 28.26 51.68 28.396 51.304 28.668C50.928 28.932 50.74 29.3 50.74 29.772C50.74 30.236 50.92 30.604 51.28 30.876C51.648 31.148 52.16 31.284 52.816 31.284ZM58.0415 37.752L58.5695 35.532L58.6655 36.048C58.4815 36.048 58.3255 35.988 58.1975 35.868C58.0775 35.748 58.0175 35.592 58.0175 35.4C58.0175 35.208 58.0775 35.052 58.1975 34.932C58.3255 34.812 58.4775 34.752 58.6535 34.752C58.8375 34.752 58.9855 34.816 59.0975 34.944C59.2175 35.072 59.2775 35.224 59.2775 35.4C59.2775 35.464 59.2735 35.528 59.2655 35.592C59.2575 35.656 59.2415 35.728 59.2175 35.808C59.1935 35.888 59.1615 35.984 59.1215 36.096L58.6175 37.752H58.0415ZM64.4457 36.072C63.7737 36.072 63.1937 35.976 62.7057 35.784C62.2257 35.592 61.8537 35.316 61.5897 34.956C61.3337 34.588 61.2057 34.156 61.2057 33.66C61.2057 33.18 61.3297 32.772 61.5777 32.436C61.8337 32.092 62.2017 31.828 62.6817 31.644C63.1697 31.46 63.7577 31.368 64.4457 31.368C65.1257 31.368 65.7097 31.46 66.1977 31.644C66.6857 31.828 67.0577 32.092 67.3137 32.436C67.5777 32.772 67.7097 33.18 67.7097 33.66C67.7097 34.156 67.5777 34.588 67.3137 34.956C67.0497 35.316 66.6737 35.592 66.1857 35.784C65.6977 35.976 65.1177 36.072 64.4457 36.072ZM64.4457 35.34C65.1897 35.34 65.7697 35.188 66.1857 34.884C66.6097 34.58 66.8217 34.168 66.8217 33.648C66.8217 33.128 66.6097 32.72 66.1857 32.424C65.7697 32.12 65.1897 31.968 64.4457 31.968C63.7017 31.968 63.1217 32.12 62.7057 32.424C62.2897 32.72 62.0817 33.128 62.0817 33.648C62.0817 34.168 62.2897 34.58 62.7057 34.884C63.1217 35.188 63.7017 35.34 64.4457 35.34ZM64.4457 31.86C63.8217 31.86 63.2897 31.776 62.8497 31.608C62.4177 31.44 62.0857 31.2 61.8537 30.888C61.6217 30.568 61.5057 30.188 61.5057 29.748C61.5057 29.284 61.6257 28.888 61.8657 28.56C62.1137 28.224 62.4577 27.968 62.8977 27.792C63.3377 27.616 63.8537 27.528 64.4457 27.528C65.0377 27.528 65.5537 27.616 65.9937 27.792C66.4417 27.968 66.7897 28.224 67.0377 28.56C67.2857 28.888 67.4097 29.284 67.4097 29.748C67.4097 30.188 67.2937 30.568 67.0617 30.888C66.8297 31.2 66.4897 31.44 66.0417 31.608C65.6017 31.776 65.0697 31.86 64.4457 31.86ZM64.4457 31.284C65.1017 31.284 65.6137 31.148 65.9817 30.876C66.3497 30.604 66.5337 30.24 66.5337 29.784C66.5337 29.304 66.3417 28.932 65.9577 28.668C65.5817 28.396 65.0777 28.26 64.4457 28.26C63.8137 28.26 63.3097 28.396 62.9337 28.668C62.5577 28.932 62.3697 29.3 62.3697 29.772C62.3697 30.236 62.5497 30.604 62.9097 30.876C63.2777 31.148 63.7897 31.284 64.4457 31.284ZM72.854 36.072C72.206 36.072 71.63 35.904 71.126 35.568C70.622 35.224 70.226 34.736 69.938 34.104C69.65 33.464 69.506 32.696 69.506 31.8C69.506 30.904 69.65 30.14 69.938 29.508C70.226 28.868 70.622 28.38 71.126 28.044C71.63 27.7 72.206 27.528 72.854 27.528C73.502 27.528 74.078 27.7 74.582 28.044C75.086 28.38 75.482 28.868 75.77 29.508C76.066 30.14 76.214 30.904 76.214 31.8C76.214 32.696 76.066 33.464 75.77 34.104C75.482 34.736 75.086 35.224 74.582 35.568C74.078 35.904 73.502 36.072 72.854 36.072ZM72.854 35.28C73.35 35.28 73.782 35.148 74.15 34.884C74.518 34.612 74.806 34.22 75.014 33.708C75.222 33.188 75.326 32.552 75.326 31.8C75.326 31.048 75.222 30.416 75.014 29.904C74.806 29.384 74.518 28.992 74.15 28.728C73.782 28.456 73.35 28.32 72.854 28.32C72.374 28.32 71.946 28.456 71.57 28.728C71.194 28.992 70.902 29.384 70.694 29.904C70.486 30.416 70.382 31.048 70.382 31.8C70.382 32.552 70.486 33.188 70.694 33.708C70.902 34.22 71.194 34.612 71.57 34.884C71.946 35.148 72.374 35.28 72.854 35.28ZM81.3993 36.072C80.7513 36.072 80.1753 35.904 79.6713 35.568C79.1673 35.224 78.7713 34.736 78.4833 34.104C78.1953 33.464 78.0513 32.696 78.0513 31.8C78.0513 30.904 78.1953 30.14 78.4833 29.508C78.7713 28.868 79.1673 28.38 79.6713 28.044C80.1753 27.7 80.7513 27.528 81.3993 27.528C82.0473 27.528 82.6233 27.7 83.1273 28.044C83.6313 28.38 84.0273 28.868 84.3153 29.508C84.6113 30.14 84.7593 30.904 84.7593 31.8C84.7593 32.696 84.6113 33.464 84.3153 34.104C84.0273 34.736 83.6313 35.224 83.1273 35.568C82.6233 35.904 82.0473 36.072 81.3993 36.072ZM81.3993 35.28C81.8953 35.28 82.3273 35.148 82.6953 34.884C83.0633 34.612 83.3513 34.22 83.5593 33.708C83.7673 33.188 83.8713 32.552 83.8713 31.8C83.8713 31.048 83.7673 30.416 83.5593 29.904C83.3513 29.384 83.0633 28.992 82.6953 28.728C82.3273 28.456 81.8953 28.32 81.3993 28.32C80.9193 28.32 80.4913 28.456 80.1153 28.728C79.7393 28.992 79.4473 29.384 79.2393 29.904C79.0313 30.416 78.9273 31.048 78.9273 31.8C78.9273 32.552 79.0313 33.188 79.2393 33.708C79.4473 34.22 79.7393 34.612 80.1153 34.884C80.4913 35.148 80.9193 35.28 81.3993 35.28ZM91.0813 36V27.6H94.2253C94.9373 27.6 95.5493 27.716 96.0613 27.948C96.5733 28.172 96.9653 28.5 97.2373 28.932C97.5173 29.356 97.6573 29.872 97.6573 30.48C97.6573 31.072 97.5173 31.584 97.2373 32.016C96.9653 32.44 96.5733 32.768 96.0613 33C95.5493 33.224 94.9373 33.336 94.2253 33.336H91.5733L91.9693 32.928V36H91.0813ZM96.8173 36L94.6573 32.952H95.6173L97.7893 36H96.8173ZM91.9693 33L91.5733 32.58H94.2013C95.0413 32.58 95.6773 32.396 96.1093 32.028C96.5493 31.66 96.7693 31.144 96.7693 30.48C96.7693 29.808 96.5493 29.288 96.1093 28.92C95.6773 28.552 95.0413 28.368 94.2013 28.368H91.5733L91.9693 27.948V33ZM100.353 36V27.6H103.497C104.209 27.6 104.821 27.716 105.333 27.948C105.845 28.172 106.237 28.5 106.509 28.932C106.789 29.356 106.929 29.872 106.929 30.48C106.929 31.072 106.789 31.584 106.509 32.016C106.237 32.44 105.845 32.768 105.333 33C104.821 33.232 104.209 33.348 103.497 33.348H100.845L101.241 32.928V36H100.353ZM101.241 33L100.845 32.568H103.473C104.313 32.568 104.949 32.388 105.381 32.028C105.821 31.66 106.041 31.144 106.041 30.48C106.041 29.808 105.821 29.288 105.381 28.92C104.949 28.552 104.313 28.368 103.473 28.368H100.845L101.241 27.948V33ZM109.449 36V27.6H110.181L114.021 34.152H113.637L117.441 27.6H118.173V36H117.321V28.932H117.525L114.021 34.932H113.601L110.073 28.932H110.301V36H109.449Z" fill="white"/>
<circle cx="223" cy="76" r="3" fill="white"/>
</svg>
